<?xml version="1.0" encoding="utf-8"?>
<!-- Generator: Adobe Illustrator 25.3.1, SVG Export Plug-In . SVG Version: 6.00 Build 0)  -->
<svg version="1.1" id="hungary" xmlns="http://www.w3.org/2000/svg" xmlns:xlink="http://www.w3.org/1999/xlink" x="0px" y="0px"
	 viewBox="0 0 1000 2130" style="enable-background:new 0 0 1000 2130;" xml:space="preserve">
<style type="text/css">
	.st0{fill:#CD283E;}
	.st1{fill:#008B49;}
	.st2{fill:#FFFFFF;}
	.st3{fill:#E7AF39;}
	.st4{fill:#0D0E20;}
</style>
<path id="red" class="st0" d="M26.6,812.3v771.8c0,51,11.3,107,28.8,154c10,27,39,94.2,99.1,154c54.4,54.2,102.9,80.9,168.4,104.6
	c70.2,25.5,142.8,41.3,177.1,60.1c34.3-18.8,106.9-34.6,177.1-60.1c65.5-23.7,114-50.4,168.4-104.5c60.1-59.9,89.1-127.1,99.2-154
	c17.5-47,28.8-103.1,28.8-154V812.3H26.6z"/>
<path id="green" class="st1" d="M500.9,1685.9c40.4-48.1,89.9-47.9,122.9,0.1c10-98.5,64.4-102,114.6-102c77.1,0,108.4,39.1,112,102
	c33.8-48.7,82.5-45.3,114-12c-23.1,114.5-88.1,197.1-153.5,250.7c-93.2,77.3-206.7,88.6-310.1,131.1L500.9,1685.9z"/>
<path id="white_4" class="st2" d="M165.5,1902.3h334.8v155.9h-0.2C450.1,2027.8,254.8,2002,165.5,1902.3L165.5,1902.3z"/>
<path id="white_3" class="st2" d="M26.5,1590.5h473.8v155.9h-442C39.7,1697.8,26.5,1642.6,26.5,1590.5z"/>
<path id="white_2" class="st2" d="M26.5,1278.6h473.8v155.9H26.5V1278.6z"/>
<path id="white_1" class="st2" d="M26.5,966.7h473.8v155.9H26.5V966.7z"/>
<path id="white_cross" class="st2" d="M679.8,883.7c9,12.8,12.9,29.4,12.9,45.3v104.5h-57.5c-15.9,0-32.5-3.9-45.3-12.9v111.4
	c12.8-9,29.4-12.9,45.3-12.9h57.5v127.1h-94.3c-15.9,0-32.5-3.9-45.3-12.9v111.4c12.8-9,29.4-12.9,45.3-12.9h94.3v261.4h88.2v-261.4
	h94.3c15.9,0,32.5,3.9,45.3,12.9v-111.4c-12.8,9-29.4,12.9-45.3,12.9h-94.3v-127.1h57.5c15.9,0,32.5,3.9,45.3,12.9v-111.4
	c-12.8,9-29.4,12.9-45.3,12.9h-57.5V929c0-15.9,3.9-32.6,12.9-45.3L679.8,883.7L679.8,883.7z"/>
<path id="yellow_3" class="st3" d="M736.8,1483.6c-8.7,5.3-18.3,6.1-22.9,16.8c-3.5,8.1,2,14.5,5.8,18c-6-4.6-15.8-9.5-23.9,1.2
	c-2.5,3.3-4,9.2-8.5,16.8c4.7,7.6,5.9,14,9.4,18c8.8,10,19.1,3.1,24.3-0.8c-3.7,8.6-12.1,28.6-33.3,13.8
	c-18.4,12.1-28.5,0.9-33.6-14.1c5.2,7.5,12.8,8.5,17.6,3.4c3.2-3.4,2.8-12.8,4.8-19.9c-3.9-3.6-4.5-5.6-6.6-10.7
	c-5.2-12.7-16.2-9.6-19.7-2.3c-1-5.8-5.5-15.2-12.6-13c-5.3,1.7-6.6,2.2-14.5,0.5c8.4,5.2,14.8,25,20,72.2
	c1.2,10.8,2.1,20.7,3.6,31.9H827c1.5-11.2,2.4-21.1,3.6-31.9c5.2-47.2,11.6-67,20-72.2c-7.8,1.7-9.2,1.2-14.5-0.5
	c-7.2-2.2-11.7,7.1-12.6,13c-3.4-7.3-14.5-10.4-19.7,2.3c-2.1,5.1-2.7,7.1-6.6,10.7c2,7.1,1.6,16.5,4.8,19.9
	c4.9,5.1,12.4,4.1,17.6-3.4c-5.1,14.9-15.2,26.2-33.6,14.1c-21.2,14.8-29.7-5.2-33.3-13.8c5.2,3.9,15.5,10.8,24.3,0.8
	c3.6-4,4.8-10.5,9.4-18c-4.5-7.6-6-13.5-8.5-16.8c-8.1-10.7-17.9-5.8-23.9-1.2c3.7-3.5,9.3-9.9,5.8-18
	C755.2,1489.7,745.5,1488.9,736.8,1483.6L736.8,1483.6z"/>
<path id="yellow_2" class="st3" d="M903.8,490.9l7.1-7.1l7.1,7.1l-7.1,7.1L903.8,490.9z M854,666l-6.7,6.6v77.5l6.7,6.7h50.3v16.3
	H605.8V648.5h298.5V666H854z M904.3,743.6h-43.5v-64.3h43.6L904.3,743.6z M891.6,600.3H845l23.2-75.9L891.6,600.3z M868.2,463.5
	c5.2,0,9.5,4.3,9.5,9.5s-4.3,9.5-9.5,9.5l0,0c-5.2,0-9.4-4.2-9.4-9.4C858.9,467.9,863,463.7,868.2,463.5 M605.8,263.5H643
	l191.9,130.8l14.6,56.8c-24.1-42.5-57.1-79.3-96.7-107.9c-43.2-31.2-94.1-52.2-147-61.2V263.5z M745.1,353.8
	c42.4,30.4,76.9,70.5,100.6,117l-0.2,2.2c0.1,12.3,10,22.3,22.3,22.6l-6,4l-27,88v-59.1c0-29.6-24-53.6-53.6-53.6
	c-29.6,0-53.6,24-53.6,53.6v67.1l-53.4-127.2l-6.2-4l-6,4l-55.4,131.9H606l-0.2-304.9C656,304.4,704.3,324.4,745.1,353.8
	 M821.8,528.5v71.8h-80.9v-71.8c-0.1-22.3,18-40.4,40.2-40.4c10.8,0,21.1,4.3,28.7,11.9C817.5,507.5,821.8,517.8,821.8,528.5
	 M715.5,600.3h-94.6l47.3-112.3L715.5,600.3z M564,263.5h28.6v196.9c-4.7-9-10.7-17.3-17.8-24.7l-10.9-9.2V263.5z M449.2,263.5
	h101.6V418c-15.5-8.7-33-13.2-50.8-13.3c-17.8,0-35.3,4.7-50.8,13.4L449.2,263.5z M407.4,263.5H436v163l-10.8,9.2
	c-7.2,7.3-12.8,15.7-17.7,24.7L407.4,263.5z M407.4,506.3c2.4-51.1,45.9-90.6,97-88.2c47.8,2.3,86,40.6,88.2,88.4v93.8H407.4
	L407.4,506.3z M165.3,394.3l191.8-130.8h37.2V282c-53,9-103.3,29.9-147,61.2c-39.3,28.5-72.2,65.1-96.3,107.2L165.3,394.3z
	 M154,471.5c23.6-46.8,58.2-87.2,100.8-117.7c41.5-29.6,89.1-49.5,139.3-58.4l-0.1,304.9h-0.7l-55.5-131.9l-6.1-4l-5.9,4
	l-53.5,127.3v-67.1c0-29.6-24-53.6-53.7-53.6c-14.2,0-27.9,5.7-37.9,15.7c-10.2,10-15.9,23.7-15.9,37.9V588l-26.8-88.3l-6.1-4.1
	c6.5-0.2,12.7-3.1,17-8C152.7,483.1,154.5,477.3,154,471.5 M379.2,600.3h-94.5l47.2-112.3L379.2,600.3z M259.2,528.5v71.8h-80.9
	v-71.8c0.1-22.3,18.1-40.4,40.4-40.4C241,488.1,259.1,506.2,259.2,528.5 M122.3,473c-0.1-5.2,4.1-9.5,9.4-9.6c0.1,0,0.1,0,0.2,0
	c5.2,0.1,9.5,4.3,9.5,9.6c0,5.2-4.3,9.5-9.5,9.5S122.3,478.2,122.3,473 M131.8,524.4l23.2,75.9h-46.6L131.8,524.4z M95.7,613.5
	h808.6v21.7H95.7V613.5z M592.7,773.1H407.4V648.6h185.3V773.1z M95.7,679.2h43.6v64.4H95.7V679.2z M95.7,756.8H146l6.5-6.7v-77.5
	L146,666H95.7v-17.5h298.5v124.6H95.7V756.8z M95.7,786.3h808.6v17.8H95.7V786.3z M81.4,490.9l7.1-7.1l7.1,7.1l-7.1,7.1L81.4,490.9z
	"/>
<path id="yellow_1" class="st3" d="M537.7,129c-6.3,2.4-12,1.6-16.7-1.9c0-0.1-0.3-0.2-0.3-0.2l-4.2,1.8l-7.6,2.9l-26.8,10.3
	l25.8,67.4l0.1,0.2l0.1-0.1l-0.2-0.5l0.2-0.2c8.8,1.4,15.9,7.2,19.4,16.3c5.4,13.9-0.5,28.7-15.6,34.6l-1.6,0.6l-4.5,1.1h-9
	c-8.9-1.5-16.2-7.7-19.7-16.8s-2.1-18.3,3.5-25.2h0.1l0.1,0.4l0.1-0.1l0.1,0.2l-0.1-0.2l0,0l-0.1-0.3l0,0h-0.1l-25.7-67l-38.3,14.7
	l-0.6,0.3c0,0.1,0.1,0.1,0.1,0.2c-1.1,5.7-4.8,10.2-11.1,12.6c-11.1,4.3-22.6-1-27.4-13.6s0.2-24.1,11.3-28.4c6.3-2.4,12-1.5,16.6,2
	c0,0.1,0,0.1,0,0.2l-0.5,0.2l0.1,0.2l0.8-0.3l5-2.1l8.8-3.4l24.8-9.5l-11.5-29.9l-3.3-8c-5.7-1.1-10.1-4.8-12.5-11
	c-4.3-11.1,0.9-22.6,13.5-27.4s24.1,0.1,28.4,11.3c2.4,6.3,1.6,12-1.9,16.7c-0.1,0-0.1,0-0.2,0l-0.2-0.5l-0.4,0.1l0.4,0.9l5.2,12.5
	l0.2,0.6l9.4,24.4l38.7-14.9l0,0l0.2-0.1c0-0.1-0.1-0.1-0.1-0.2c1.1-5.7,4.7-10.1,11-12.6c11.1-4.3,22.6,0.9,27.4,13.5
	S548.9,124.7,537.7,129z"/>
<g id="black_1_">
	<path class="st4" d="M218.6,424.9c-12.9,0-23.5,10.6-23.5,23.4c0,13.1,10.6,23.5,23.5,23.5c12.9,0,23.4-10.4,23.4-23.5
		C242,435.4,231.6,424.9,218.6,424.9z M218.6,458.6c-5.8,0-10.3-4.6-10.3-10.3c0-5.5,4.6-10.2,10.3-10.2c5.6,0,10.2,4.7,10.2,10.2
		C228.8,454.1,224.3,458.6,218.6,458.6z M237.3,672.5c-3.9-4-9.4-6.3-15-6.3h-26.1c-5.6,0-11.2,2.3-15,6.3c-4,4.1-6.2,9.5-6.2,15.2
		v47.9c0,5.7,2.2,11.1,6.2,15.2c4,3.9,9.4,6.1,15,6.1h26.1c5.5,0,11-2.2,15-6.1l1.3-1.2v-0.8c3.1-3.6,5.1-8.2,5.1-13.3v-47.9
		C243.7,681.9,241.4,676.5,237.3,672.5z M230.3,735.5l-2.4,5.9l-5.7,2.4h-26.1l-5.8-2.4l-2.3-5.9v-47.9l2.3-5.8l5.8-2.5h26.1
		l5.7,2.5l2.4,5.8V735.5z M331.7,403.7c-7.6,0-15,3.1-20.4,8.6c-5.5,5.4-8.5,12.8-8.5,20.4c0,7.7,3.1,15.1,8.5,20.4
		c5.4,5.5,12.8,8.5,20.4,8.5c16.1,0,29.1-13,29.1-28.9C360.8,416.7,347.8,403.7,331.7,403.7z M331.9,448.5
		c-8.8,0-15.9-7.1-15.9-15.8c0-8.8,7.1-15.9,15.9-15.9c8.6,0,15.7,7.1,15.7,15.9C347.6,441.4,340.5,448.5,331.9,448.5z M358.7,666.1
		h-85.9l-6.7,6.6v77.5l6.7,6.7h85.9l6.6-6.7v-77.5L358.7,666.1z M352,743.7h-72.7v-64.3H352V743.7z M525.4,347.8
		c-6.8-6.1-15.9-9.3-25.5-9.3c-9.6,0-18.7,3.2-25.5,9.3c-7.1,6.3-11,14.6-11,23.5c0,8.8,3.8,17.3,11,23.4c6.9,6,15.9,9.3,25.5,9.3
		c9.6,0,18.7-3.4,25.5-9.3c7.1-6.1,11.1-14.5,11.1-23.4C536.5,362.3,532.5,354,525.4,347.8z M516.9,384.9
		c-4.6,3.8-10.4,5.9-16.9,5.9c-6.3,0-12.4-2.1-16.9-5.9c-4.2-3.8-6.5-8.7-6.5-13.6c0-5.1,2.3-9.8,6.6-13.6c4.4-3.9,10.4-6,16.8-6
		c6.5,0,12.5,2.1,16.9,6c4.1,3.7,6.5,8.4,6.5,13.6C523.3,376.3,521,381.1,516.9,384.9z M499.9,659.8c-28.1,0-70.8,35.5-70.8,65.9
		c0,10.1,7.9,19,22.5,25.1c12.8,5.3,30.1,8.1,48.4,8.1c18.4,0,35.5-2.9,48.4-8.1c14.6-6.1,22.5-15,22.5-25.1
		C570.8,695.3,527.8,659.8,499.9,659.8z M543.3,738.7c-11.3,4.5-26.9,7.2-43.4,7.2c-16.6,0-32-2.7-43.4-7.2
		c-9.1-3.9-14.4-8.6-14.4-13c0-22.9,36.4-52.7,57.8-52.7c21.4,0,57.8,29.8,57.8,52.7C557.7,730.1,552.5,734.8,543.3,738.7z
		 M668.2,403.7c-16,0-29.1,13-29.1,29c0,15.9,13.1,28.9,29.1,28.9c15.9,0,28.9-13,28.9-28.9C697.1,416.7,684.1,403.7,668.2,403.7z
		 M668.2,448.5c-8.8,0-15.9-7.1-15.9-15.8c0-8.8,7.1-15.9,15.9-15.9c8.6,0,15.7,7.1,15.7,15.9C683.8,441.4,676.8,448.5,668.2,448.5z
		 M726.9,666.1h-85.8l-6.5,6.6v77.5l6.5,6.7h85.8l6.7-6.7v-77.5L726.9,666.1z M720.5,743.7h-72.7v-64.3h72.7V743.7z M781.2,424.9
		c-12.9,0-23.4,10.6-23.4,23.4c0,13.1,10.5,23.5,23.4,23.5c12.9,0,23.4-10.4,23.4-23.5C804.6,435.4,794.1,424.9,781.2,424.9z
		 M781.2,458.6c-5.7,0-10.3-4.6-10.3-10.3c0-5.5,4.6-10.2,10.3-10.2c5.6,0,10.3,4.7,10.3,10.2C791.5,454.1,786.9,458.6,781.2,458.6z
		 M818.8,672.5c-4.1-4-9.4-6.3-15-6.3h-26.1c-5.7,0-11.1,2.3-15.1,6.3c-4.1,4.1-6.4,9.5-6.4,15.2v47.9c0,5.7,2.3,11.1,6.4,15.2
		c4.1,4,9.5,6.1,15.1,6.1h26.1c5.5,0,10.9-2.2,15-6.1l1.2-1.2v-0.8c3.1-3.8,5-8.3,5-13.3v-47.9C825,681.9,822.9,676.5,818.8,672.5z
		 M812,735.5l-2.5,5.9l-5.7,2.4h-26.1l-5.8-2.4l-2.4-5.9v-47.9l2.4-5.7l5.8-2.5h26.1l5.7,2.5l2.5,5.8V735.5z M668.2,403.7
		c-16,0-29.1,13-29.1,29c0,15.9,13.1,28.9,29.1,28.9c15.9,0,28.9-13,28.9-28.9C697.1,416.7,684.1,403.7,668.2,403.7z M668.2,448.5
		c-8.8,0-15.9-7.1-15.9-15.8c0-8.8,7.1-15.9,15.9-15.9c8.6,0,15.7,7.1,15.7,15.9C683.8,441.4,676.8,448.5,668.2,448.5z M781.2,424.9
		c-12.9,0-23.4,10.6-23.4,23.4c0,13.1,10.5,23.5,23.4,23.5c12.9,0,23.4-10.4,23.4-23.5C804.6,435.4,794.1,424.9,781.2,424.9z
		 M781.2,458.6c-5.7,0-10.3-4.6-10.3-10.3c0-5.5,4.6-10.2,10.3-10.2c5.6,0,10.3,4.7,10.3,10.2C791.5,454.1,786.9,458.6,781.2,458.6z
		 M525.4,347.8c-6.8-6.1-15.9-9.3-25.5-9.3c-9.6,0-18.7,3.2-25.5,9.3c-7.1,6.3-11,14.6-11,23.5c0,8.8,3.8,17.3,11,23.4
		c6.9,6,15.9,9.3,25.5,9.3c9.6,0,18.7-3.4,25.5-9.3c7.1-6.1,11.1-14.5,11.1-23.4C536.5,362.3,532.5,354,525.4,347.8z M516.9,384.9
		c-4.6,3.8-10.4,5.9-16.9,5.9c-6.3,0-12.4-2.1-16.9-5.9c-4.2-3.8-6.5-8.7-6.5-13.6c0-5.1,2.3-9.8,6.6-13.6c4.4-3.9,10.4-6,16.8-6
		c6.5,0,12.5,2.1,16.9,6c4.1,3.7,6.5,8.4,6.5,13.6C523.3,376.3,521,381.1,516.9,384.9z M218.6,424.9c-12.9,0-23.5,10.6-23.5,23.4
		c0,13.1,10.6,23.5,23.5,23.5c12.9,0,23.4-10.4,23.4-23.5C242,435.4,231.6,424.9,218.6,424.9z M218.6,458.6
		c-5.8,0-10.3-4.6-10.3-10.3c0-5.5,4.6-10.2,10.3-10.2c5.6,0,10.2,4.7,10.2,10.2C228.8,454.1,224.3,458.6,218.6,458.6z M331.7,403.7
		c-7.6,0-15,3.1-20.4,8.6c-5.5,5.4-8.5,12.8-8.5,20.4c0,7.7,3.1,15.1,8.5,20.4c5.4,5.5,12.8,8.5,20.4,8.5c16.1,0,29.1-13,29.1-28.9
		C360.8,416.7,347.8,403.7,331.7,403.7z M331.9,448.5c-8.8,0-15.9-7.1-15.9-15.8c0-8.8,7.1-15.9,15.9-15.9c8.6,0,15.7,7.1,15.7,15.9
		C347.6,441.4,340.5,448.5,331.9,448.5z M499.9,659.8c-28.1,0-70.8,35.5-70.8,65.9c0,10.1,7.9,19,22.5,25.1
		c12.8,5.3,30.1,8.1,48.4,8.1c18.4,0,35.5-2.9,48.4-8.1c14.6-6.1,22.5-15,22.5-25.1C570.8,695.3,527.8,659.8,499.9,659.8z
		 M543.3,738.7c-11.3,4.5-26.9,7.2-43.4,7.2c-16.6,0-32-2.7-43.4-7.2c-9.1-3.9-14.4-8.6-14.4-13c0-22.9,36.4-52.7,57.8-52.7
		c21.4,0,57.8,29.8,57.8,52.7C557.7,730.1,552.5,734.8,543.3,738.7z M237.3,672.5c-3.9-4-9.4-6.3-15-6.3h-26.1
		c-5.6,0-11.2,2.3-15,6.3c-4,4.1-6.2,9.5-6.2,15.2v47.9c0,5.7,2.2,11.1,6.2,15.2c4,3.9,9.4,6.1,15,6.1h26.1c5.5,0,11-2.2,15-6.1
		l1.3-1.2v-0.8c3.1-3.6,5.1-8.2,5.1-13.3v-47.9C243.7,681.9,241.4,676.5,237.3,672.5z M230.3,735.5l-2.4,5.9l-5.7,2.4h-26.1
		l-5.8-2.4l-2.3-5.9v-47.9l2.3-5.8l5.8-2.5h26.1l5.7,2.5l2.4,5.8V735.5z M358.7,666.1h-85.9l-6.7,6.6v77.5l6.7,6.7h85.9l6.6-6.7
		v-77.5L358.7,666.1z M352,743.7h-72.7v-64.3H352V743.7z M726.9,666.1h-85.8l-6.5,6.6v77.5l6.5,6.7h85.8l6.7-6.7v-77.5L726.9,666.1z
		 M720.5,743.7h-72.7v-64.3h72.7V743.7z M818.8,672.5c-4.1-4-9.4-6.3-15-6.3h-26.1c-5.7,0-11.1,2.3-15.1,6.3
		c-4.1,4.1-6.4,9.5-6.4,15.2v47.9c0,5.7,2.3,11.1,6.4,15.2c4.1,4,9.5,6.1,15.1,6.1h26.1c5.5,0,10.9-2.2,15-6.1l1.2-1.2v-0.8
		c3.1-3.8,5-8.3,5-13.3v-47.9C825,681.9,822.9,676.5,818.8,672.5z M812,735.5l-2.5,5.9l-5.7,2.4h-26.1l-5.8-2.4l-2.4-5.9v-47.9
		l2.4-5.7l5.8-2.5h26.1l5.7,2.5l2.5,5.8V735.5z M969,1671.2c-0.2-0.6-0.6-1.1-1-1.6c-2.4-2.5-4.9-4.9-7.4-7
		c-16.1-13.9-35.1-20.6-54.2-19.2c-19.4,1.5-37.3,11.3-52.3,28.6c-3-23.7-10.4-43-22.1-57.6c1-7.4,1.7-14.1,2.4-21.2
		c0.3-2.9,0.6-5.9,0.9-8.9c4.5-41,10.4-64,17.7-68.6c2.1-1.3,2.9-3.8,2-6.1c-0.9-2.2-3.3-3.5-5.7-3c-6.2,1.4-6.9,1.2-11.3-0.2
		l-0.6-0.2c-3.4-1.1-6.8-0.6-9.8,1.2c-2.6,1.6-4.7,4.3-6.3,7.2c-2.3-1.4-5-2.1-7.7-2.1c-6.2,0.1-11.6,4.4-14.6,11.7l-0.4,0.9
		c-1.7,4.2-2.2,5.3-5.1,8c-1.4,1.3-1.9,3.2-1.4,5c0.7,2.4,1.1,5.3,1.4,8.1c0.7,5.5,1.4,10.7,4.5,13.9c2.5,2.6,5.6,4.2,8.9,4.6
		c-1.1,1-2.4,1.8-3.8,2.2c-4,1.4-8.9,0.1-14.8-3.8c-0.9-0.6-1.8-0.8-2.8-0.8c-1,0-1.9,0.3-2.7,0.9c-1.5,1.1-3,1.9-4.4,2.6
		c-1,0.5-1.9,0.8-2.8,1.1c-0.2,0.1-0.5,0.2-0.7,0.2c-0.2,0.1-0.4,0.1-0.7,0.2c-0.1,0-0.2,0.1-0.3,0.1c-0.2,0-0.4,0.1-0.7,0.1
		c0,0,0,0,0,0c-0.3,0-0.5,0.1-0.8,0.1s-0.5,0-0.8,0c-1.1,0-2.2-0.2-3.2-0.6c-1.5-0.6-2.9-1.5-4.1-2.8c0.7,0.1,1.3,0.1,2,0.1
		c0.4,0,0.8,0,1.1,0c0.4,0,0.7-0.1,1.1-0.1c0.3,0,0.5-0.1,0.8-0.1c0.2,0,0.3-0.1,0.4-0.1c0.3-0.1,0.6-0.1,0.8-0.2
		c0.3-0.1,0.7-0.2,1-0.3c0.3-0.1,0.6-0.2,1-0.3c0.6-0.2,1.2-0.5,1.8-0.8c0.2-0.1,0.4-0.2,0.7-0.4c0.2-0.1,0.3-0.2,0.5-0.3
		c1.8-1.2,3.4-2.6,4.7-4.1c2.2-2.5,3.6-5.4,4.8-8.2l0.4-1v-1c0-2.3-1.7-4.4-3.9-4.8c-2.3-0.5-4.6,0.7-5.6,2.9
		c-1.1,2.5-2,4.4-3.1,5.6c-4.5,5-9.6,4.6-17.6-1.5c-1.8-1.4-4.3-1.3-6,0c-1.8,1.4-2.4,3.8-1.5,5.9c2.6,6,7.3,17.2,17.3,20.9
		c3.6,1.3,7.4,1.6,11.4,0.7c0.4-0.1,0.8-0.2,1.2-0.3c1.7-0.4,3.4-1.1,5.1-1.9c0,0,0.1,0,0.1-0.1c1-0.4,1.9-1,2.9-1.6
		c7.5,4.2,14.5,5.3,20.7,3.1c7.7-2.6,13.6-9.9,17.5-21.5c0.8-2.3-0.3-4.9-2.5-6c-2.2-1.1-4.9-0.4-6.3,1.6c-1.8,2.6-4.1,4.2-6.1,4.4
		c-1.4,0.1-2.7-0.4-3.8-1.6c-0.9-1-1.5-5.6-1.9-8.4c-0.3-2.2-0.6-4.4-1-6.6c2.8-3.1,3.8-5.6,5.4-9.4l0.4-0.9c0.8-2,2.7-5.5,5.6-5.6
		c2,0,4,1.4,5,3.5c0.9,2,3,3.1,5.2,2.8c2.2-0.3,3.9-2,4.2-4.1c0.5-3.2,2.4-7.5,4.6-8.8c0.6-0.3,1-0.4,1.7-0.2l0.6,0.2
		c1.7,0.5,3.1,1,4.5,1.2c-5.8,11.1-10,30.6-13.5,61.7H647.4c-3.6-31-7.8-50.6-13.5-61.7c1.4-0.3,2.8-0.7,4.5-1.2l0.6-0.2
		c0.6-0.2,1.1-0.1,1.6,0.2c2.2,1.3,4.1,5.6,4.6,8.8c0.3,2.2,2.1,3.8,4.2,4.1c2.2,0.3,4.3-0.8,5.2-2.8c1-2.1,3-3.5,5-3.5
		c2.9,0.1,4.8,3.5,5.6,5.6l0.4,0.9c1.6,3.8,2.6,6.3,5.4,9.4c-0.5,2.2-0.8,4.4-1,6.6c-0.4,2.8-1,7.4-1.9,8.4
		c-1.1,1.2-2.4,1.7-3.8,1.6c-2.1-0.2-4.3-1.8-6.2-4.4c-1.4-2-4.1-2.7-6.3-1.6c-2.2,1.1-3.3,3.7-2.5,6c4,11.6,9.8,18.8,17.5,21.5
		c6.2,2.2,13.2,1.1,20.7-3.1c1,0.6,2,1.1,3,1.6c0.5,0.2,1,0.4,1.4,0.6c0.2,0.1,0.5,0.2,0.7,0.3c0.9,0.4,1.9,0.7,2.8,1
		c0.5,0.1,0.9,0.2,1.4,0.4c0.7,0.2,1.4,0.3,2,0.4c0.4,0,0.8,0.1,1.2,0.1c0.1,0,0.1,0,0.2,0c0.1,0,0.3,0,0.4,0c0.1,0,0.3,0,0.4,0
		c0.1,0,0.3,0,0.4,0h0.1c0.5,0,1,0,1.5-0.1c0.1,0,0.1,0,0.2,0c0.6-0.1,1.1-0.1,1.6-0.2c0.3,0,0.6-0.1,0.8-0.2
		c0.6-0.1,1.1-0.3,1.6-0.4c0.3-0.1,0.5-0.2,0.8-0.3c5-1.9,8.7-5.6,11.4-9.6c0.3-0.5,0.7-1,1-1.5c0.5-0.9,1-1.7,1.5-2.6
		c0.2-0.4,0.4-0.8,0.6-1.2c0.3-0.6,0.6-1.2,0.9-1.7c0.1-0.3,0.3-0.6,0.4-0.9c0.2-0.3,0.3-0.6,0.4-0.9c0.2-0.4,0.4-0.9,0.6-1.3
		c0.2-0.4,0.3-0.8,0.5-1.2c0,0,0,0,0,0c0.9-2.1,0.2-4.5-1.5-5.9c-1.8-1.4-4.3-1.4-6.1,0c-8,6.1-13.1,6.5-17.6,1.5
		c-1.1-1.2-2-3.1-3.1-5.7c-0.9-2.2-3.3-3.3-5.6-2.9c-2.3,0.5-3.9,2.5-3.9,4.8v1l0.4,0.9c1.2,2.8,2.6,5.8,4.8,8.2
		c1.3,1.5,2.9,2.9,4.7,4.1c0.1,0.1,0.2,0.1,0.3,0.2c0.1,0,0.1,0.1,0.2,0.1c0.2,0.1,0.4,0.3,0.7,0.4c0.3,0.2,0.6,0.3,0.8,0.4
		c0,0,0,0,0,0c0.3,0.1,0.6,0.3,0.9,0.4c0.9,0.4,1.9,0.7,2.9,0.9c0,0,0.1,0,0.1,0c0.3,0.1,0.7,0.1,1,0.2c0.4,0,0.7,0.1,1.1,0.1
		c0.4,0,0.7,0,1.1,0c0.6,0,1.3,0,2-0.1c-1.2,1.2-2.6,2.2-4.1,2.8c-1,0.4-2.1,0.6-3.2,0.6c-0.2,0-0.5,0-0.8,0s-0.5,0-0.8-0.1
		c0,0,0,0,0,0c-0.2,0-0.4-0.1-0.6-0.1c-0.6-0.1-1.1-0.2-1.7-0.4c-0.9-0.3-1.8-0.7-2.8-1.1c-1.4-0.7-2.9-1.6-4.4-2.6
		c-0.8-0.6-1.8-0.9-2.7-0.9c-1,0-2,0.2-2.8,0.8c-5.9,3.9-10.9,5.1-14.8,3.8c-1.4-0.5-2.6-1.2-3.8-2.2c3.3-0.4,6.4-2,8.9-4.6
		c3.1-3.3,3.8-8.4,4.5-13.9c0.4-2.8,0.8-5.7,1.4-8.1c0.5-1.8,0-3.7-1.4-5c-2.8-2.6-3.3-3.8-5-8l-0.4-0.9c-3-7.3-8.3-11.6-14.6-11.7
		c-2.7-0.1-5.3,0.7-7.6,2c-1.5-2.9-3.6-5.5-6.3-7.2c-3-1.9-6.4-2.3-9.8-1.2l-0.6,0.2c-4.4,1.4-5.1,1.6-11.3,0.2
		c-2.3-0.5-4.8,0.7-5.7,3c-0.9,2.2-0.1,4.8,2,6.1c7.3,4.5,13.2,27.6,17.7,68.6c0.3,3,0.6,6,0.9,9c0.7,6.9,1.4,13.5,2.3,20.7
		c-10.4,14.6-17.3,33.9-20.9,58.5c-15-17.6-32.9-27.4-52.3-28.3c-21.8-1-43.4,8.9-63.1,29c-2.7,2.7-5.3,5.6-7.9,8.7
		c-0.8,0.9-1.2,2-1.2,3.2v369.8c0,0.5,0.1,0.9,0.2,1.3c0.3,1.1,1,2.1,2,2.8c0.8,0.6,1.8,0.8,2.8,0.8c0.6,0,1.3-0.1,1.9-0.4
		c33.1-13.6,67.9-24.2,101.6-34.4c66.9-20.3,135.8-41.3,196.7-87.1c0.2-0.1,0.4-0.3,0.6-0.4c1.7-1.3,3.4-2.6,5.2-4
		c1.7-1.3,3.5-2.7,5.2-4.2c1.1-0.9,2.2-1.8,3.4-2.8c1.5-1.2,3-2.5,4.5-3.7c55.9-47.3,125-127.8,149.5-248.8
		C969.4,1673.1,969.3,1672.1,969,1671.2z M825,1588.7c-0.1,1.2-0.2,2.3-0.4,3.4c-0.6,5.9-1.2,11.5-1.9,17.5H650.8
		c-0.7-5.9-1.3-11.6-1.9-17.5c-0.1-1.2-0.2-2.3-0.4-3.5H825z M789.9,1933.7c-58.3,42.1-124.4,62.3-188.5,81.8
		c-31.6,9.6-64.2,19.5-95.6,32v-360.7c19.4-22.5,40.7-33.8,61.7-32.8c19.5,0.9,37.5,12.7,52.1,33.8c1.2,1.7,3.3,2.5,5.3,2
		c2-0.5,3.5-2.2,3.7-4.3c2.9-28.2,9.4-49.6,20.1-65h175.6c12.6,15.7,19.5,36.9,21.1,64.8c0.1,2.1,1.6,3.9,3.6,4.5
		c2,0.6,4.2-0.2,5.4-1.9c14.6-21.1,32.9-33,52.7-34.5c18-1.4,36.1,5.9,51.1,20.6c-4.7,21.4-10.8,42.6-18.2,62.6
		c-9.7,26.1-38.7,93.2-98,152.2c-17.5,17.4-34.3,31.9-51,44.2C790.7,1933.2,790.3,1933.4,789.9,1933.7z M823.5,1619.5H649.4
		c-0.2,0.3-0.5,0.7-0.7,1h175.6C824.1,1620.2,823.8,1619.9,823.5,1619.5z M958.3,1673.9c-4.7,21.4-10.8,42.6-18.2,62.6
		c-9.7,26.1-38.7,93.2-98,152.2c-17.5,17.4-34.3,31.9-51,44.2c5.7-4.1,11.2-8.4,16.7-13c55.2-45.3,126.1-124.5,151.2-245.3
		C958.8,1674.4,958.5,1674.1,958.3,1673.9z M26.7,1585.6v9.9H495v-9.9H26.7z M57.6,1741.5v9.9H495v-9.9H57.6z M164.8,1897.5v9.9H495
		v-9.9H164.8z M26.7,1429.7v9.9H495v-9.9H26.7z M26.7,1273.7v9.9H495v-9.9H26.7z M26.7,1117.8v9.9H495v-9.9H26.7z M26.7,961.9v9.9
		H495v-9.9H26.7z M922.7,1229.1c-1.6-0.8-3.6-0.7-5.1,0.4c-11,7.7-26.1,12-42.5,12h-89.3v-117.2h52.5c16.4,0,31.5,4.2,42.5,12
		c1.5,1.1,3.5,1.2,5.1,0.4c1.6-0.9,2.7-2.6,2.7-4.4v-111.4c0-1.9-1-3.5-2.7-4.4c-1.6-0.8-3.6-0.7-5.1,0.4c-11,7.7-26.1,12-42.5,12
		h-52.5v-99.6c0-16.4,4.2-31.5,12-42.5c1.1-1.5,1.2-3.5,0.3-5.1c-0.8-1.6-2.5-2.7-4.4-2.7H679.8c-1.8,0-3.6,1-4.4,2.7
		c-0.9,1.6-0.7,3.6,0.3,5.1c7.7,11,12,26.1,12,42.5v99.6h-52.5c-16.4,0-31.5-4.2-42.5-12c-1.5-1.1-3.5-1.2-5.1-0.4
		c-1.6,0.9-2.7,2.6-2.7,4.4v111.4c0,1.9,1,3.5,2.7,4.4c1.6,0.8,3.6,0.7,5.1-0.4c11-7.7,26.1-12,42.5-12h52.5v117.2h-89.3
		c-16.4,0-31.5-4.2-42.5-12c-1.5-1.1-3.5-1.2-5.1-0.4c-1.6,0.9-2.7,2.6-2.7,4.4v111.4c0,1.8,1,3.6,2.7,4.4c1.7,0.8,3.6,0.7,5.1-0.3
		c11-7.7,26.1-12,42.5-12h89.3v187.4c-1.2,2.8-2.6,6-4.8,9.5c-1,1.6-0.9,3.6,0,5.2c2,3.2,3.3,6.2,4.5,9l0.2,0.5v-1
		c0-2.3,1.6-4.4,3.9-4.8c2.3-0.5,4.6,0.7,5.6,2.9l-0.6-1.4c-1-2.3-2.1-4.9-3.7-7.8c1.7-3.1,2.9-5.9,3.9-8.2l0.4-0.8
		c0.8-1.9,1.7-3.7,2.5-4.8c2-2.6,4.1-4.1,6.4-4.4c3.7-0.5,7.8,2,10.5,4.1c2.1,1.6,5.1,1.3,6.8-0.7c1.7-2,1.5-5-0.4-6.8
		c-6.3-5.9-5.7-9.7-4.6-12.4c2.5-5.8,6.8-7.7,12.8-10.4c1.8-0.8,3.7-1.7,5.6-2.7c1.9,1,3.8,1.8,5.6,2.7c5.9,2.7,10.2,4.6,12.7,10.4
		c1.2,2.7,1.7,6.5-4.6,12.4c-1.9,1.8-2.1,4.8-0.4,6.8c1.7,2,4.7,2.3,6.8,0.7c2.8-2.2,6.9-4.6,10.5-4.1c2.3,0.3,4.3,1.7,6.4,4.4
		c0.4,0.6,0.9,1.3,1.3,2.2c0.2,0.3,0.3,0.7,0.5,1.1c0.2,0.5,0.4,0.9,0.6,1.4l0.1,0.3l0.2,0.5c1,2.3,2.2,5.1,3.9,8.2
		c-1.6,2.9-2.7,5.5-3.8,7.9l-0.5,1.2c0.9-2.2,3.3-3.3,5.6-2.9c2.3,0.5,3.9,2.5,3.9,4.8v1l0.1-0.3c1.3-2.9,2.6-5.9,4.6-9.2
		c1-1.6,1-3.6,0.1-5.2c-2.1-3.6-3.5-6.7-4.8-9.5V1337h89.3c16.4,0,31.5,4.2,42.5,12c1.5,1.1,3.5,1.2,5.1,0.3
		c1.6-0.9,2.7-2.6,2.7-4.4v-111.4C925.4,1231.6,924.4,1230,922.7,1229.1z M915.5,1336.1c-11.5-5.9-25.5-9.1-40.4-9.1h-94.3
		c-2.7,0-5,2.2-5,5v179c-0.3-0.2-0.6-0.3-0.8-0.5c-0.3-0.2-0.6-0.3-0.9-0.5c-0.5-0.3-1-0.5-1.6-0.7c-0.3-0.2-0.7-0.3-1.1-0.4
		c-0.3-0.1-0.6-0.2-0.9-0.2c-0.6-0.2-1.2-0.3-1.9-0.4c-1.1-0.1-2.2-0.2-3.3-0.1c0.6-3.8-0.2-7.1-1.3-9.8c-4-9.3-11.3-12.6-17.8-15.5
		c-2.5-1.1-4.8-2.2-7.1-3.5c-1.6-1-3.6-1-5.2,0c-2.2,1.4-4.6,2.4-7.1,3.5c-6.5,2.9-13.8,6.2-17.8,15.5c-1.2,2.6-1.9,6-1.3,9.8
		c-1.1-0.1-2.2,0-3.3,0.1c-0.6,0.1-1.2,0.2-1.9,0.4c-0.3,0.1-0.6,0.2-0.9,0.2c-0.4,0.1-0.7,0.2-1.1,0.4c-0.5,0.2-1,0.4-1.5,0.7
		c-0.3,0.2-0.6,0.3-0.8,0.5c-0.3,0.2-0.6,0.3-0.8,0.5v-179c0-2.7-2.2-5-5-5h-94.3c-14.9,0-28.9,3.2-40.4,9.1v-93.9
		c11.5,5.9,25.5,9.1,40.4,9.1h94.3c2.7,0,5-2.2,5-5v-127.1c0-2.7-2.2-5-5-5h-57.5c-14.9,0-28.9,3.2-40.4,9.1v-93.9
		c11.5,5.9,25.5,9.1,40.4,9.1h57.5c2.7,0,5-2.2,5-5V929.1c0-14.9-3.2-28.9-9.1-40.4h96.4c-5.9,11.5-9.1,25.5-9.1,40.4v104.5
		c0,2.7,2.2,5,5,5h57.5c14.9,0,28.9-3.2,40.4-9.1v93.9c-11.5-5.9-25.5-9.1-40.4-9.1h-57.5c-2.7,0-5,2.2-5,5v127.1c0,2.7,2.2,5,5,5
		h94.3c14.9,0,28.9-3.2,40.4-9.1V1336.1z M785.4,1549.5c-1.2,2.8-2.6,5.8-4.8,8.2c-1.3,1.5-2.9,2.9-4.7,4.1v5.3
		c0.9-0.3,1.8-0.7,2.8-1.1c1.4-0.7,2.9-1.5,4.4-2.6c0.8-0.6,1.8-0.9,2.7-0.9v-14L785.4,1549.5z M692.9,1557.8
		c-2.2-2.5-3.6-5.4-4.8-8.2l-0.4-0.9v14c1,0,1.9,0.3,2.7,0.9c1.5,1,3,1.9,4.4,2.6c1,0.5,1.9,0.8,2.8,1.1v-5.3
		C695.8,1560.7,694.2,1559.3,692.9,1557.8z M705.7,1577.3c0.6-0.1,1.1-0.3,1.6-0.4C706.8,1577,706.3,1577.1,705.7,1577.3z
		 M922.7,1229.1c-1.6-0.8-3.6-0.7-5.1,0.4c-11,7.7-26.1,12-42.5,12h-89.3v-117.2h52.5c16.4,0,31.5,4.2,42.5,12
		c1.5,1.1,3.5,1.2,5.1,0.4c1.6-0.9,2.7-2.6,2.7-4.4v-111.4c0-1.9-1-3.5-2.7-4.4c-1.6-0.8-3.6-0.7-5.1,0.4c-11,7.7-26.1,12-42.5,12
		h-52.5v-99.6c0-16.4,4.2-31.5,12-42.5c1.1-1.5,1.2-3.5,0.3-5.1c-0.8-1.6-2.5-2.7-4.4-2.7H679.8c-1.8,0-3.6,1-4.4,2.7
		c-0.9,1.6-0.7,3.6,0.3,5.1c7.7,11,12,26.1,12,42.5v99.6h-52.5c-16.4,0-31.5-4.2-42.5-12c-1.5-1.1-3.5-1.2-5.1-0.4
		c-1.6,0.9-2.7,2.6-2.7,4.4v111.4c0,1.9,1,3.5,2.7,4.4c1.6,0.8,3.6,0.7,5.1-0.4c11-7.7,26.1-12,42.5-12h52.5v117.2h-89.3
		c-16.4,0-31.5-4.2-42.5-12c-1.5-1.1-3.5-1.2-5.1-0.4c-1.6,0.9-2.7,2.6-2.7,4.4v111.4c0,1.8,1,3.6,2.7,4.4c1.7,0.8,3.6,0.7,5.1-0.3
		c11-7.7,26.1-12,42.5-12h89.3v187.4c-1.2,2.8-2.6,6-4.8,9.5c-1,1.6-0.9,3.6,0,5.2c2,3.2,3.3,6.2,4.5,9l0.2,0.5v-1
		c0-2.3,1.6-4.4,3.9-4.8c2.3-0.5,4.6,0.7,5.6,2.9l-0.6-1.4c-1-2.3-2.1-4.9-3.7-7.8c1.7-3.1,2.9-5.9,3.9-8.2l0.4-0.8
		c0.8-1.9,1.7-3.7,2.5-4.8c2-2.6,4.1-4.1,6.4-4.4c3.7-0.5,7.8,2,10.5,4.1c2.1,1.6,5.1,1.3,6.8-0.7c1.7-2,1.5-5-0.4-6.8
		c-6.3-5.9-5.7-9.7-4.6-12.4c2.5-5.8,6.8-7.7,12.8-10.4c1.8-0.8,3.7-1.7,5.6-2.7c1.9,1,3.8,1.8,5.6,2.7c5.9,2.7,10.2,4.6,12.7,10.4
		c1.2,2.7,1.7,6.5-4.6,12.4c-1.9,1.8-2.1,4.8-0.4,6.8c1.7,2,4.7,2.3,6.8,0.7c2.8-2.2,6.9-4.6,10.5-4.1c2.3,0.3,4.3,1.7,6.4,4.4
		c0.4,0.6,0.9,1.3,1.3,2.2c0.2,0.3,0.3,0.7,0.5,1.1c0.2,0.5,0.4,0.9,0.6,1.4l0.1,0.3l0.2,0.5c1,2.3,2.2,5.1,3.9,8.2
		c-1.6,2.9-2.7,5.5-3.8,7.9l-0.5,1.2c0.9-2.2,3.3-3.3,5.6-2.9c2.3,0.5,3.9,2.5,3.9,4.8v1l0.1-0.3c1.3-2.9,2.6-5.9,4.6-9.2
		c1-1.6,1-3.6,0.1-5.2c-2.1-3.6-3.5-6.7-4.8-9.5V1337h89.3c16.4,0,31.5,4.2,42.5,12c1.5,1.1,3.5,1.2,5.1,0.3
		c1.6-0.9,2.7-2.6,2.7-4.4v-111.4C925.4,1231.6,924.4,1230,922.7,1229.1z M915.5,1336.1c-11.5-5.9-25.5-9.1-40.4-9.1h-94.3
		c-2.7,0-5,2.2-5,5v179c-0.3-0.2-0.6-0.3-0.8-0.5c-0.3-0.2-0.6-0.3-0.9-0.5c-0.5-0.3-1-0.5-1.6-0.7c-0.3-0.2-0.7-0.3-1.1-0.4
		c-0.3-0.1-0.6-0.2-0.9-0.2c-0.6-0.2-1.2-0.3-1.9-0.4c-1.1-0.1-2.2-0.2-3.3-0.1c0.6-3.8-0.2-7.1-1.3-9.8c-4-9.3-11.3-12.6-17.8-15.5
		c-2.5-1.1-4.8-2.2-7.1-3.5c-1.6-1-3.6-1-5.2,0c-2.2,1.4-4.6,2.4-7.1,3.5c-6.5,2.9-13.8,6.2-17.8,15.5c-1.2,2.6-1.9,6-1.3,9.8
		c-1.1-0.1-2.2,0-3.3,0.1c-0.6,0.1-1.2,0.2-1.9,0.4c-0.3,0.1-0.6,0.2-0.9,0.2c-0.4,0.1-0.7,0.2-1.1,0.4c-0.5,0.2-1,0.4-1.5,0.7
		c-0.3,0.2-0.6,0.3-0.8,0.5c-0.3,0.2-0.6,0.3-0.8,0.5v-179c0-2.7-2.2-5-5-5h-94.3c-14.9,0-28.9,3.2-40.4,9.1v-93.9
		c11.5,5.9,25.5,9.1,40.4,9.1h94.3c2.7,0,5-2.2,5-5v-127.1c0-2.7-2.2-5-5-5h-57.5c-14.9,0-28.9,3.2-40.4,9.1v-93.9
		c11.5,5.9,25.5,9.1,40.4,9.1h57.5c2.7,0,5-2.2,5-5V929.1c0-14.9-3.2-28.9-9.1-40.4h96.4c-5.9,11.5-9.1,25.5-9.1,40.4v104.5
		c0,2.7,2.2,5,5,5h57.5c14.9,0,28.9-3.2,40.4-9.1v93.9c-11.5-5.9-25.5-9.1-40.4-9.1h-57.5c-2.7,0-5,2.2-5,5v127.1c0,2.7,2.2,5,5,5
		h94.3c14.9,0,28.9-3.2,40.4-9.1V1336.1z M785.4,1549.5c-1.2,2.8-2.6,5.8-4.8,8.2c-1.3,1.5-2.9,2.9-4.7,4.1v5.3
		c0.9-0.3,1.8-0.7,2.8-1.1c1.4-0.7,2.9-1.5,4.4-2.6c0.8-0.6,1.8-0.9,2.7-0.9v-14L785.4,1549.5z M692.9,1557.8
		c-2.2-2.5-3.6-5.4-4.8-8.2l-0.4-0.9v14c1,0,1.9,0.3,2.7,0.9c1.5,1,3,1.9,4.4,2.6c1,0.5,1.9,0.8,2.8,1.1v-5.3
		C695.8,1560.7,694.2,1559.3,692.9,1557.8z M705.7,1577.3c0.6-0.1,1.1-0.3,1.6-0.4C706.8,1577,706.3,1577.1,705.7,1577.3z
		 M922.7,1229.1c-1.6-0.8-3.6-0.7-5.1,0.4c-11,7.7-26.1,12-42.5,12h-89.3v-117.2h52.5c16.4,0,31.5,4.2,42.5,12
		c1.5,1.1,3.5,1.2,5.1,0.4c1.6-0.9,2.7-2.6,2.7-4.4v-111.4c0-1.9-1-3.5-2.7-4.4c-1.6-0.8-3.6-0.7-5.1,0.4c-11,7.7-26.1,12-42.5,12
		h-52.5v-99.6c0-16.4,4.2-31.5,12-42.5c1.1-1.5,1.2-3.5,0.3-5.1c-0.8-1.6-2.5-2.7-4.4-2.7H679.8c-1.8,0-3.6,1-4.4,2.7
		c-0.9,1.6-0.7,3.6,0.3,5.1c7.7,11,12,26.1,12,42.5v99.6h-52.5c-16.4,0-31.5-4.2-42.5-12c-1.5-1.1-3.5-1.2-5.1-0.4
		c-1.6,0.9-2.7,2.6-2.7,4.4v111.4c0,1.9,1,3.5,2.7,4.4c1.6,0.8,3.6,0.7,5.1-0.4c11-7.7,26.1-12,42.5-12h52.5v117.2h-89.3
		c-16.4,0-31.5-4.2-42.5-12c-1.5-1.1-3.5-1.2-5.1-0.4c-1.6,0.9-2.7,2.6-2.7,4.4v111.4c0,1.8,1,3.6,2.7,4.4c1.7,0.8,3.6,0.7,5.1-0.3
		c11-7.7,26.1-12,42.5-12h89.3v187.4c-1.2,2.8-2.6,6-4.8,9.5c-1,1.6-0.9,3.6,0,5.2c2,3.2,3.3,6.2,4.5,9l0.2,0.5v-1
		c0-2.3,1.6-4.4,3.9-4.8c2.3-0.5,4.6,0.7,5.6,2.9l-0.6-1.4c-1-2.3-2.1-4.9-3.7-7.8c1.7-3.1,2.9-5.9,3.9-8.2l0.4-0.8
		c0.8-1.9,1.7-3.7,2.5-4.8c2-2.6,4.1-4.1,6.4-4.4c3.7-0.5,7.8,2,10.5,4.1c2.1,1.6,5.1,1.3,6.8-0.7c1.7-2,1.5-5-0.4-6.8
		c-6.3-5.9-5.7-9.7-4.6-12.4c2.5-5.8,6.8-7.7,12.8-10.4c1.8-0.8,3.7-1.7,5.6-2.7c1.9,1,3.8,1.8,5.6,2.7c5.9,2.7,10.2,4.6,12.7,10.4
		c1.2,2.7,1.7,6.5-4.6,12.4c-1.9,1.8-2.1,4.8-0.4,6.8c1.7,2,4.7,2.3,6.8,0.7c2.8-2.2,6.9-4.6,10.5-4.1c2.3,0.3,4.3,1.7,6.4,4.4
		c0.4,0.6,0.9,1.3,1.3,2.2c0.2,0.3,0.3,0.7,0.5,1.1c0.2,0.5,0.4,0.9,0.6,1.4l0.1,0.3l0.2,0.5c1,2.3,2.2,5.1,3.9,8.2
		c-1.6,2.9-2.7,5.5-3.8,7.9l-0.5,1.2c0.9-2.2,3.3-3.3,5.6-2.9c2.3,0.5,3.9,2.5,3.9,4.8v1l0.1-0.3c1.3-2.9,2.6-5.9,4.6-9.2
		c1-1.6,1-3.6,0.1-5.2c-2.1-3.6-3.5-6.7-4.8-9.5V1337h89.3c16.4,0,31.5,4.2,42.5,12c1.5,1.1,3.5,1.2,5.1,0.3
		c1.6-0.9,2.7-2.6,2.7-4.4v-111.4C925.4,1231.6,924.4,1230,922.7,1229.1z M915.5,1336.1c-11.5-5.9-25.5-9.1-40.4-9.1h-94.3
		c-2.7,0-5,2.2-5,5v179c-0.3-0.2-0.6-0.3-0.8-0.5c-0.3-0.2-0.6-0.3-0.9-0.5c-0.5-0.3-1-0.5-1.6-0.7c-0.3-0.2-0.7-0.3-1.1-0.4
		c-0.3-0.1-0.6-0.2-0.9-0.2c-0.6-0.2-1.2-0.3-1.9-0.4c-1.1-0.1-2.2-0.2-3.3-0.1c0.6-3.8-0.2-7.1-1.3-9.8c-4-9.3-11.3-12.6-17.8-15.5
		c-2.5-1.1-4.8-2.2-7.1-3.5c-1.6-1-3.6-1-5.2,0c-2.2,1.4-4.6,2.4-7.1,3.5c-6.5,2.9-13.8,6.2-17.8,15.5c-1.2,2.6-1.9,6-1.3,9.8
		c-1.1-0.1-2.2,0-3.3,0.1c-0.6,0.1-1.2,0.2-1.9,0.4c-0.3,0.1-0.6,0.2-0.9,0.2c-0.4,0.1-0.7,0.2-1.1,0.4c-0.5,0.2-1,0.4-1.5,0.7
		c-0.3,0.2-0.6,0.3-0.8,0.5c-0.3,0.2-0.6,0.3-0.8,0.5v-179c0-2.7-2.2-5-5-5h-94.3c-14.9,0-28.9,3.2-40.4,9.1v-93.9
		c11.5,5.9,25.5,9.1,40.4,9.1h94.3c2.7,0,5-2.2,5-5v-127.1c0-2.7-2.2-5-5-5h-57.5c-14.9,0-28.9,3.2-40.4,9.1v-93.9
		c11.5,5.9,25.5,9.1,40.4,9.1h57.5c2.7,0,5-2.2,5-5V929.1c0-14.9-3.2-28.9-9.1-40.4h96.4c-5.9,11.5-9.1,25.5-9.1,40.4v104.5
		c0,2.7,2.2,5,5,5h57.5c14.9,0,28.9-3.2,40.4-9.1v93.9c-11.5-5.9-25.5-9.1-40.4-9.1h-57.5c-2.7,0-5,2.2-5,5v127.1c0,2.7,2.2,5,5,5
		h94.3c14.9,0,28.9-3.2,40.4-9.1V1336.1z M780.6,1557.8c-1.3,1.5-2.9,2.9-4.7,4.1v5.3c0.9-0.3,1.8-0.7,2.8-1.1
		c1.4-0.7,2.9-1.5,4.4-2.6c0.8-0.6,1.8-0.9,2.7-0.9v-14l-0.4,1C784.1,1552.3,782.8,1555.3,780.6,1557.8z M690.4,1563.4
		c1.5,1,3,1.9,4.4,2.6c1,0.5,1.9,0.8,2.8,1.1v-5.3c-1.8-1.2-3.4-2.6-4.7-4.1c-2.2-2.5-3.6-5.4-4.8-8.2l-0.4-0.9v14
		C688.6,1562.5,689.6,1562.8,690.4,1563.4z M705.7,1577.3c0.6-0.1,1.1-0.3,1.6-0.4C706.8,1577,706.3,1577.1,705.7,1577.3z
		 M21.6,807.4v776.8c0,49.3,10.6,106.1,29.1,155.8c10,26.7,39.7,95.4,100.3,155.8c57.9,57.6,108,83.1,170.2,105.7
		c29.4,10.6,59.6,19.7,86.2,27.8c37.9,11.4,70.6,21.3,90.2,32l2.4,1.3l2.4-1.3c19.6-10.7,52.3-20.6,90.2-32
		c26.7-8,56.9-17.1,86.2-27.8c44.5-16.1,82.8-33.8,122.2-63.6c0.2-0.1,0.4-0.3,0.6-0.4c1.7-1.3,3.4-2.6,5.2-4
		c1.7-1.4,3.4-2.7,5.2-4.2c1.1-0.9,2.2-1.8,3.4-2.8c1.5-1.2,3-2.5,4.5-3.7c9.6-8.2,19.3-17.1,29.2-27
		c60.7-60.4,90.3-129.1,100.3-155.8c8.2-22,14.8-45.3,19.7-68.8c6.1-29.6,9.4-59.5,9.4-87V807.4H21.6z M649.2,1555
		c4,11.6,9.8,18.8,17.5,21.5c6.2,2.2,13.2,1.1,20.7-3.1c1,0.6,2,1.1,3,1.6c0.5,0.2,1,0.4,1.4,0.6c0.2,0.1,0.5,0.2,0.7,0.3
		c0.9,0.4,1.9,0.7,2.8,1c0.5,0.1,0.9,0.2,1.4,0.4c0.7,0.2,1.4,0.3,2,0.4c0.4,0,0.8,0.1,1.2,0.1c0.1,0,0.1,0,0.2,0c0.1,0,0.3,0,0.4,0
		c0.1,0,0.3,0,0.4,0c0.1,0,0.3,0,0.4,0h0.1c0.5,0,1,0,1.5-0.1c0.1,0,0.1,0,0.2,0c0.6-0.1,1.1-0.1,1.6-0.2c0.3,0,0.6-0.1,0.8-0.2
		c0.6-0.1,1.1-0.3,1.6-0.4c0.3-0.1,0.5-0.2,0.8-0.3c5-1.9,8.7-5.6,11.4-9.6c0.3-0.5,0.7-1,1-1.5c0.5-0.9,1-1.7,1.5-2.6
		c0.2-0.4,0.4-0.8,0.6-1.2c0.3-0.6,0.6-1.2,0.9-1.7c0.1-0.3,0.3-0.6,0.4-0.9c0.2-0.3,0.3-0.6,0.4-0.9c0.2-0.4,0.4-0.9,0.6-1.3
		c0.2-0.4,0.3-0.8,0.5-1.2c0,0,0,0,0,0c0.9-2.1,0.2-4.5-1.5-5.9c-1.8-1.4-4.3-1.4-6.1,0c-8,6.1-13.1,6.5-17.6,1.5
		c-1.1-1.2-2-3.1-3.1-5.7l-0.6-1.4c-1-2.3-2.1-4.9-3.7-7.8c1.7-3.1,2.9-5.9,3.9-8.2l0.4-0.8c0.8-1.9,1.7-3.7,2.5-4.8
		c2-2.6,4.1-4.1,6.4-4.4c3.7-0.5,7.8,2,10.5,4.1c2.1,1.6,5.1,1.3,6.8-0.7c1.7-2,1.5-5-0.4-6.8c-6.3-5.9-5.7-9.7-4.6-12.4
		c2.5-5.8,6.8-7.7,12.8-10.4c1.8-0.8,3.7-1.7,5.6-2.7c1.9,1,3.8,1.8,5.6,2.7c5.9,2.7,10.2,4.6,12.7,10.4c1.2,2.7,1.7,6.5-4.6,12.4
		c-1.9,1.8-2.1,4.8-0.4,6.8c1.7,2,4.7,2.3,6.8,0.7c2.8-2.2,6.9-4.6,10.5-4.1c2.3,0.3,4.3,1.7,6.4,4.4c0.4,0.6,0.9,1.3,1.3,2.2
		c0.2,0.3,0.3,0.7,0.5,1.1c0.2,0.5,0.4,0.9,0.6,1.4l0.1,0.3l0.2,0.5c1,2.3,2.2,5.1,3.9,8.2c-1.6,2.9-2.7,5.5-3.8,7.9l-0.5,1.2
		c-1.1,2.5-2,4.4-3.1,5.6c-4.5,5-9.6,4.6-17.6-1.5c-1.8-1.4-4.3-1.3-6,0c-1.8,1.4-2.4,3.8-1.5,5.9c2.6,6,7.3,17.2,17.3,20.9
		c3.6,1.3,7.4,1.6,11.4,0.7c0.4-0.1,0.8-0.2,1.2-0.3c1.7-0.4,3.4-1.1,5.1-1.9c0,0,0.1,0,0.1-0.1c1-0.4,1.9-1,2.9-1.6
		c7.5,4.2,14.5,5.3,20.7,3.1c7.7-2.6,13.6-9.9,17.5-21.5c0.8-2.3-0.3-4.9-2.5-6c-2.2-1.1-4.9-0.4-6.3,1.6c-1.8,2.6-4.1,4.2-6.1,4.4
		c-1.4,0.1-2.7-0.4-3.8-1.6c-0.9-1-1.5-5.6-1.9-8.4c-0.3-2.2-0.6-4.4-1-6.6c2.8-3.1,3.8-5.6,5.4-9.4l0.4-0.9c0.8-2,2.7-5.5,5.6-5.6
		c2,0,4,1.4,5,3.5c0.9,2,3,3.1,5.2,2.8c2.2-0.3,3.9-2,4.2-4.1c0.5-3.2,2.4-7.5,4.6-8.8c0.6-0.3,1-0.4,1.7-0.2l0.6,0.2
		c1.7,0.5,3.1,1,4.5,1.2c-5.8,11.1-10,30.6-13.5,61.7H647.4c-3.6-31-7.8-50.6-13.5-61.7c1.4-0.3,2.8-0.7,4.5-1.2l0.6-0.2
		c0.6-0.2,1.1-0.1,1.6,0.2c2.2,1.3,4.1,5.6,4.6,8.8c0.3,2.2,2.1,3.8,4.2,4.1c2.2,0.3,4.3-0.8,5.2-2.8c1-2.1,3-3.5,5-3.5
		c2.9,0.1,4.8,3.5,5.6,5.6l0.4,0.9c1.6,3.8,2.6,6.3,5.4,9.4c-0.5,2.2-0.8,4.4-1,6.6c-0.4,2.8-1,7.4-1.9,8.4
		c-1.1,1.2-2.4,1.7-3.8,1.6c-2.1-0.2-4.3-1.8-6.2-4.4c-1.4-2-4.1-2.7-6.3-1.6C649.5,1550.1,648.4,1552.7,649.2,1555z M692.6,1114.3
		h-57.5c-14.9,0-28.9,3.2-40.4,9.1v-93.9c11.5,5.9,25.5,9.1,40.4,9.1h57.5c2.7,0,5-2.2,5-5V929.1c0-14.9-3.2-28.9-9.1-40.4h96.4
		c-5.9,11.5-9.1,25.5-9.1,40.4v104.5c0,2.7,2.2,5,5,5h57.5c14.9,0,28.9-3.2,40.4-9.1v93.9c-11.5-5.9-25.5-9.1-40.4-9.1h-57.5
		c-2.7,0-5,2.2-5,5v127.1c0,2.7,2.2,5,5,5h94.3c14.9,0,28.9-3.2,40.4-9.1v93.9c-11.5-5.9-25.5-9.1-40.4-9.1h-94.3c-2.7,0-5,2.2-5,5
		v179c-0.3-0.2-0.6-0.3-0.8-0.5c-0.3-0.2-0.6-0.3-0.9-0.5c-0.5-0.3-1-0.5-1.6-0.7c-0.3-0.2-0.7-0.3-1.1-0.4
		c-0.3-0.1-0.6-0.2-0.9-0.2c-0.6-0.2-1.2-0.3-1.9-0.4c-1.1-0.1-2.2-0.2-3.3-0.1c0.6-3.8-0.2-7.1-1.3-9.8c-4-9.3-11.3-12.6-17.8-15.5
		c-2.5-1.1-4.8-2.2-7.1-3.5c-1.6-1-3.6-1-5.2,0c-2.2,1.4-4.6,2.4-7.1,3.5c-6.5,2.9-13.8,6.2-17.8,15.5c-1.2,2.6-1.9,6-1.3,9.8
		c-1.1-0.1-2.2,0-3.3,0.1c-0.6,0.1-1.2,0.2-1.9,0.4c-0.3,0.1-0.6,0.2-0.9,0.2c-0.4,0.1-0.7,0.2-1.1,0.4c-0.5,0.2-1,0.4-1.5,0.7
		c-0.3,0.2-0.6,0.3-0.8,0.5c-0.3,0.2-0.6,0.3-0.8,0.5v-179c0-2.7-2.2-5-5-5h-94.3c-14.9,0-28.9,3.2-40.4,9.1v-93.9
		c11.5,5.9,25.5,9.1,40.4,9.1h94.3c2.7,0,5-2.2,5-5v-127.1C697.6,1116.6,695.4,1114.3,692.6,1114.3z M775.2,1567.4
		c-0.2,0.1-0.4,0.1-0.7,0.2c-0.1,0-0.2,0.1-0.3,0.1c-0.2,0-0.4,0.1-0.7,0.1c0,0,0,0,0,0c-0.3,0-0.5,0.1-0.8,0.1s-0.5,0-0.8,0
		c-1.1,0-2.2-0.2-3.2-0.6c-1.5-0.6-2.9-1.5-4.1-2.8c0.7,0.1,1.3,0.1,2,0.1c0.4,0,0.8,0,1.1,0c0.4,0,0.7-0.1,1.1-0.1
		c0.3,0,0.5-0.1,0.8-0.1c0.2,0,0.3-0.1,0.4-0.1c0.3-0.1,0.6-0.1,0.8-0.2c0.3-0.1,0.7-0.2,1-0.3c0.3-0.1,0.6-0.2,1-0.3
		c0.6-0.2,1.2-0.5,1.8-0.8c0.2-0.1,0.4-0.2,0.7-0.4c0.2-0.1,0.3-0.2,0.5-0.3v5.3C775.6,1567.2,775.4,1567.3,775.2,1567.4z
		 M697.6,1561.8c0.1,0.1,0.2,0.1,0.3,0.2c0.1,0,0.1,0.1,0.2,0.1c0.2,0.1,0.4,0.3,0.7,0.4c0.3,0.2,0.6,0.3,0.8,0.4c0,0,0,0,0,0
		c0.3,0.1,0.6,0.3,0.9,0.4c0.9,0.4,1.9,0.7,2.9,0.9c0,0,0.1,0,0.1,0c0.3,0.1,0.7,0.1,1,0.2c0.4,0,0.7,0.1,1.1,0.1c0.4,0,0.7,0,1.1,0
		c0.6,0,1.3,0,2-0.1c-1.2,1.2-2.6,2.2-4.1,2.8c-1,0.4-2.1,0.6-3.2,0.6c-0.2,0-0.5,0-0.8,0s-0.5,0-0.8-0.1c0,0,0,0,0,0
		c-0.2,0-0.4-0.1-0.6-0.1c-0.6-0.1-1.1-0.2-1.7-0.4V1561.8z M822.7,1609.6H650.8c-0.7-5.9-1.3-11.6-1.9-17.5
		c-0.1-1.2-0.2-2.3-0.4-3.5H825c-0.1,1.2-0.2,2.3-0.4,3.4C824,1598,823.4,1603.7,822.7,1609.6z M648.8,1620.5h175.6
		c12.6,15.7,19.5,36.9,21.1,64.8c0.1,2.1,1.6,3.9,3.6,4.5c2,0.6,4.2-0.2,5.4-1.9c14.6-21.1,32.9-33,52.7-34.5
		c18-1.4,36.1,5.9,51.1,20.6c-4.7,21.4-10.8,42.6-18.2,62.6c-9.7,26.1-38.7,93.2-98,152.2c-17.5,17.4-34.3,31.9-51,44.2
		c-0.4,0.3-0.7,0.6-1.1,0.8c-58.3,42.1-124.4,62.3-188.5,81.8c-31.6,9.6-64.2,19.5-95.6,32v-360.7c19.4-22.5,40.7-33.8,61.7-32.8
		c19.5,0.9,37.5,12.7,52.1,33.8c1.2,1.7,3.3,2.5,5.3,2c2-0.5,3.5-2.2,3.7-4.3C631.6,1657.3,638.1,1636,648.8,1620.5z M31.5,1584.2
		v-144.6H495v146H31.5C31.5,1585.2,31.5,1584.7,31.5,1584.2z M31.5,971.8H495v146H31.5V971.8z M495,1127.7v146H31.5v-146H495z
		 M31.5,1283.7H495v146H31.5V1283.7z M31.5,817.4H495v144.5H31.5V817.4z M31.7,1595.5H495v146H61.9c-0.7-1.8-1.4-3.5-1.9-5
		C43.3,1691.6,33.2,1640.9,31.7,1595.5z M66,1751.5H495v146H167c-3-2.8-6-5.7-9-8.7C107.9,1838.9,79.5,1783.3,66,1751.5z
		 M324.6,1992.1c-53.7-19.5-98.3-41.2-146.9-84.7H495v141.4c-20.6-9.8-50.6-18.8-84.8-29.1C383.8,2011.7,353.7,2002.7,324.6,1992.1z
		 M906.4,1643.4c-19.4,1.5-37.3,11.3-52.3,28.6c-3-23.7-10.4-43-22.1-57.6c1-7.4,1.7-14.1,2.4-21.2c0.3-2.9,0.6-5.9,0.9-8.9
		c4.5-41,10.4-64,17.7-68.6c2.1-1.3,2.9-3.8,2-6.1c-0.9-2.2-3.3-3.5-5.7-3c-6.2,1.4-6.9,1.2-11.3-0.2l-0.6-0.2
		c-3.4-1.1-6.8-0.6-9.8,1.2c-2.6,1.6-4.7,4.3-6.3,7.2c-2.3-1.4-5-2.1-7.7-2.1c-6.2,0.1-11.6,4.4-14.6,11.7l-0.4,0.9
		c-1.7,4.2-2.2,5.3-5.1,8c-1.4,1.3-1.9,3.2-1.4,5c0.7,2.4,1.1,5.3,1.4,8.1c0.7,5.5,1.4,10.7,4.5,13.9c2.5,2.6,5.6,4.2,8.9,4.6
		c-1.1,1-2.4,1.8-3.8,2.2c-4,1.4-8.9,0.1-14.8-3.8c-0.9-0.6-1.8-0.8-2.8-0.8v-14l0.1-0.3c1.3-2.9,2.6-5.9,4.6-9.2
		c1-1.6,1-3.6,0.1-5.2c-2.1-3.6-3.5-6.7-4.8-9.5V1337h89.3c16.4,0,31.5,4.2,42.5,12c1.5,1.1,3.5,1.2,5.1,0.3
		c1.6-0.9,2.7-2.6,2.7-4.4v-111.4c0-1.8-1-3.5-2.7-4.4c-1.6-0.8-3.6-0.7-5.1,0.4c-11,7.7-26.1,12-42.5,12h-89.3v-117.2h52.5
		c16.4,0,31.5,4.2,42.5,12c1.5,1.1,3.5,1.2,5.1,0.4c1.6-0.9,2.7-2.6,2.7-4.4v-111.4c0-1.9-1-3.5-2.7-4.4c-1.6-0.8-3.6-0.7-5.1,0.4
		c-11,7.7-26.1,12-42.5,12h-52.5v-99.6c0-16.4,4.2-31.5,12-42.5c1.1-1.5,1.2-3.5,0.3-5.1c-0.8-1.6-2.5-2.7-4.4-2.7H679.8
		c-1.8,0-3.6,1-4.4,2.7c-0.9,1.6-0.7,3.6,0.3,5.1c7.7,11,12,26.1,12,42.5v99.6h-52.5c-16.4,0-31.5-4.2-42.5-12
		c-1.5-1.1-3.5-1.2-5.1-0.4c-1.6,0.9-2.7,2.6-2.7,4.4v111.4c0,1.9,1,3.5,2.7,4.4c1.6,0.8,3.6,0.7,5.1-0.4c11-7.7,26.1-12,42.5-12
		h52.5v117.2h-89.3c-16.4,0-31.5-4.2-42.5-12c-1.5-1.1-3.5-1.2-5.1-0.4c-1.6,0.9-2.7,2.6-2.7,4.4v111.4c0,1.8,1,3.6,2.7,4.4
		c1.7,0.8,3.6,0.7,5.1-0.3c11-7.7,26.1-12,42.5-12h89.3v187.4c-1.2,2.8-2.6,6-4.8,9.5c-1,1.6-0.9,3.6,0,5.2c2,3.2,3.3,6.2,4.5,9
		l0.2,0.5v14c-1,0-2,0.2-2.8,0.8c-5.9,3.9-10.9,5.1-14.8,3.8c-1.4-0.5-2.6-1.2-3.8-2.2c3.3-0.4,6.4-2,8.9-4.6
		c3.1-3.3,3.8-8.4,4.5-13.9c0.4-2.8,0.8-5.7,1.4-8.1c0.5-1.8,0-3.7-1.4-5c-2.8-2.6-3.3-3.8-5-8l-0.4-0.9c-3-7.3-8.3-11.6-14.6-11.7
		c-2.7-0.1-5.3,0.7-7.6,2c-1.5-2.9-3.6-5.5-6.3-7.2c-3-1.9-6.4-2.3-9.8-1.2l-0.6,0.2c-4.4,1.4-5.1,1.6-11.3,0.2
		c-2.3-0.5-4.8,0.7-5.7,3c-0.9,2.2-0.1,4.8,2,6.1c7.3,4.5,13.2,27.6,17.7,68.6c0.3,3,0.6,6,0.9,9c0.7,6.9,1.4,13.5,2.3,20.7
		c-10.4,14.6-17.3,33.9-20.9,58.5c-15-17.6-32.9-27.4-52.3-28.3c-21.8-1-43.4,8.9-63.1,29V817.4h463.5v766.9
		c0,24.8-2.8,51.6-7.9,78.4C944.4,1648.7,925.5,1642,906.4,1643.4z M705.7,1577.3c0.6-0.1,1.1-0.3,1.6-0.4
		C706.8,1577,706.3,1577.1,705.7,1577.3z M692.9,1557.8c-2.2-2.5-3.6-5.4-4.8-8.2l-0.4-0.9v14c1,0,1.9,0.3,2.7,0.9
		c1.5,1,3,1.9,4.4,2.6c1,0.5,1.9,0.8,2.8,1.1v-5.3C695.8,1560.7,694.2,1559.3,692.9,1557.8z M785.4,1549.5c-1.2,2.8-2.6,5.8-4.8,8.2
		c-1.3,1.5-2.9,2.9-4.7,4.1v5.3c0.9-0.3,1.8-0.7,2.8-1.1c1.4-0.7,2.9-1.5,4.4-2.6c0.8-0.6,1.8-0.9,2.7-0.9v-14L785.4,1549.5z
		 M922.7,1229.1c-1.6-0.8-3.6-0.7-5.1,0.4c-11,7.7-26.1,12-42.5,12h-89.3v-117.2h52.5c16.4,0,31.5,4.2,42.5,12
		c1.5,1.1,3.5,1.2,5.1,0.4c1.6-0.9,2.7-2.6,2.7-4.4v-111.4c0-1.9-1-3.5-2.7-4.4c-1.6-0.8-3.6-0.7-5.1,0.4c-11,7.7-26.1,12-42.5,12
		h-52.5v-99.6c0-16.4,4.2-31.5,12-42.5c1.1-1.5,1.2-3.5,0.3-5.1c-0.8-1.6-2.5-2.7-4.4-2.7H679.8c-1.8,0-3.6,1-4.4,2.7
		c-0.9,1.6-0.7,3.6,0.3,5.1c7.7,11,12,26.1,12,42.5v99.6h-52.5c-16.4,0-31.5-4.2-42.5-12c-1.5-1.1-3.5-1.2-5.1-0.4
		c-1.6,0.9-2.7,2.6-2.7,4.4v111.4c0,1.9,1,3.5,2.7,4.4c1.6,0.8,3.6,0.7,5.1-0.4c11-7.7,26.1-12,42.5-12h52.5v117.2h-89.3
		c-16.4,0-31.5-4.2-42.5-12c-1.5-1.1-3.5-1.2-5.1-0.4c-1.6,0.9-2.7,2.6-2.7,4.4v111.4c0,1.8,1,3.6,2.7,4.4c1.7,0.8,3.6,0.7,5.1-0.3
		c11-7.7,26.1-12,42.5-12h89.3v187.4c-1.2,2.8-2.6,6-4.8,9.5c-1,1.6-0.9,3.6,0,5.2c2,3.2,3.3,6.2,4.5,9l0.2,0.5v-1
		c0-2.3,1.6-4.4,3.9-4.8c2.3-0.5,4.6,0.7,5.6,2.9l-0.6-1.4c-1-2.3-2.1-4.9-3.7-7.8c1.7-3.1,2.9-5.9,3.9-8.2l0.4-0.8
		c0.8-1.9,1.7-3.7,2.5-4.8c2-2.6,4.1-4.1,6.4-4.4c3.7-0.5,7.8,2,10.5,4.1c2.1,1.6,5.1,1.3,6.8-0.7c1.7-2,1.5-5-0.4-6.8
		c-6.3-5.9-5.7-9.7-4.6-12.4c2.5-5.8,6.8-7.7,12.8-10.4c1.8-0.8,3.7-1.7,5.6-2.7c1.9,1,3.8,1.8,5.6,2.7c5.9,2.7,10.2,4.6,12.7,10.4
		c1.2,2.7,1.7,6.5-4.6,12.4c-1.9,1.8-2.1,4.8-0.4,6.8c1.7,2,4.7,2.3,6.8,0.7c2.8-2.2,6.9-4.6,10.5-4.1c2.3,0.3,4.3,1.7,6.4,4.4
		c0.4,0.6,0.9,1.3,1.3,2.2c0.2,0.3,0.3,0.7,0.5,1.1c0.2,0.5,0.4,0.9,0.6,1.4l0.1,0.3l0.2,0.5c1,2.3,2.2,5.1,3.9,8.2
		c-1.6,2.9-2.7,5.5-3.8,7.9l-0.5,1.2c0.9-2.2,3.3-3.3,5.6-2.9c2.3,0.5,3.9,2.5,3.9,4.8v1l0.1-0.3c1.3-2.9,2.6-5.9,4.6-9.2
		c1-1.6,1-3.6,0.1-5.2c-2.1-3.6-3.5-6.7-4.8-9.5V1337h89.3c16.4,0,31.5,4.2,42.5,12c1.5,1.1,3.5,1.2,5.1,0.3
		c1.6-0.9,2.7-2.6,2.7-4.4v-111.4C925.4,1231.6,924.4,1230,922.7,1229.1z M915.5,1336.1c-11.5-5.9-25.5-9.1-40.4-9.1h-94.3
		c-2.7,0-5,2.2-5,5v179c-0.3-0.2-0.6-0.3-0.8-0.5c-0.3-0.2-0.6-0.3-0.9-0.5c-0.5-0.3-1-0.5-1.6-0.7c-0.3-0.2-0.7-0.3-1.1-0.4
		c-0.3-0.1-0.6-0.2-0.9-0.2c-0.6-0.2-1.2-0.3-1.9-0.4c-1.1-0.1-2.2-0.2-3.3-0.1c0.6-3.8-0.2-7.1-1.3-9.8c-4-9.3-11.3-12.6-17.8-15.5
		c-2.5-1.1-4.8-2.2-7.1-3.5c-1.6-1-3.6-1-5.2,0c-2.2,1.4-4.6,2.4-7.1,3.5c-6.5,2.9-13.8,6.2-17.8,15.5c-1.2,2.6-1.9,6-1.3,9.8
		c-1.1-0.1-2.2,0-3.3,0.1c-0.6,0.1-1.2,0.2-1.9,0.4c-0.3,0.1-0.6,0.2-0.9,0.2c-0.4,0.1-0.7,0.2-1.1,0.4c-0.5,0.2-1,0.4-1.5,0.7
		c-0.3,0.2-0.6,0.3-0.8,0.5c-0.3,0.2-0.6,0.3-0.8,0.5v-179c0-2.7-2.2-5-5-5h-94.3c-14.9,0-28.9,3.2-40.4,9.1v-93.9
		c11.5,5.9,25.5,9.1,40.4,9.1h94.3c2.7,0,5-2.2,5-5v-127.1c0-2.7-2.2-5-5-5h-57.5c-14.9,0-28.9,3.2-40.4,9.1v-93.9
		c11.5,5.9,25.5,9.1,40.4,9.1h57.5c2.7,0,5-2.2,5-5V929.1c0-14.9-3.2-28.9-9.1-40.4h96.4c-5.9,11.5-9.1,25.5-9.1,40.4v104.5
		c0,2.7,2.2,5,5,5h57.5c14.9,0,28.9-3.2,40.4-9.1v93.9c-11.5-5.9-25.5-9.1-40.4-9.1h-57.5c-2.7,0-5,2.2-5,5v127.1c0,2.7,2.2,5,5,5
		h94.3c14.9,0,28.9-3.2,40.4-9.1V1336.1z M705.7,1577.3c0.6-0.1,1.1-0.3,1.6-0.4C706.8,1577,706.3,1577.1,705.7,1577.3z
		 M692.9,1557.8c-2.2-2.5-3.6-5.4-4.8-8.2l-0.4-0.9v14c1,0,1.9,0.3,2.7,0.9c1.5,1,3,1.9,4.4,2.6c1,0.5,1.9,0.8,2.8,1.1v-5.3
		C695.8,1560.7,694.2,1559.3,692.9,1557.8z M785.4,1549.5c-1.2,2.8-2.6,5.8-4.8,8.2c-1.3,1.5-2.9,2.9-4.7,4.1v5.3
		c0.9-0.3,1.8-0.7,2.8-1.1c1.4-0.7,2.9-1.5,4.4-2.6c0.8-0.6,1.8-0.9,2.7-0.9v-14L785.4,1549.5z M922.7,1229.1
		c-1.6-0.8-3.6-0.7-5.1,0.4c-11,7.7-26.1,12-42.5,12h-89.3v-117.2h52.5c16.4,0,31.5,4.2,42.5,12c1.5,1.1,3.5,1.2,5.1,0.4
		c1.6-0.9,2.7-2.6,2.7-4.4v-111.4c0-1.9-1-3.5-2.7-4.4c-1.6-0.8-3.6-0.7-5.1,0.4c-11,7.7-26.1,12-42.5,12h-52.5v-99.6
		c0-16.4,4.2-31.5,12-42.5c1.1-1.5,1.2-3.5,0.3-5.1c-0.8-1.6-2.5-2.7-4.4-2.7H679.8c-1.8,0-3.6,1-4.4,2.7c-0.9,1.6-0.7,3.6,0.3,5.1
		c7.7,11,12,26.1,12,42.5v99.6h-52.5c-16.4,0-31.5-4.2-42.5-12c-1.5-1.1-3.5-1.2-5.1-0.4c-1.6,0.9-2.7,2.6-2.7,4.4v111.4
		c0,1.9,1,3.5,2.7,4.4c1.6,0.8,3.6,0.7,5.1-0.4c11-7.7,26.1-12,42.5-12h52.5v117.2h-89.3c-16.4,0-31.5-4.2-42.5-12
		c-1.5-1.1-3.5-1.2-5.1-0.4c-1.6,0.9-2.7,2.6-2.7,4.4v111.4c0,1.8,1,3.6,2.7,4.4c1.7,0.8,3.6,0.7,5.1-0.3c11-7.7,26.1-12,42.5-12
		h89.3v187.4c-1.2,2.8-2.6,6-4.8,9.5c-1,1.6-0.9,3.6,0,5.2c2,3.2,3.3,6.2,4.5,9l0.2,0.5v-1c0-2.3,1.6-4.4,3.9-4.8
		c2.3-0.5,4.6,0.7,5.6,2.9l-0.6-1.4c-1-2.3-2.1-4.9-3.7-7.8c1.7-3.1,2.9-5.9,3.9-8.2l0.4-0.8c0.8-1.9,1.7-3.7,2.5-4.8
		c2-2.6,4.1-4.1,6.4-4.4c3.7-0.5,7.8,2,10.5,4.1c2.1,1.6,5.1,1.3,6.8-0.7c1.7-2,1.5-5-0.4-6.8c-6.3-5.9-5.7-9.7-4.6-12.4
		c2.5-5.8,6.8-7.7,12.8-10.4c1.8-0.8,3.7-1.7,5.6-2.7c1.9,1,3.8,1.8,5.6,2.7c5.9,2.7,10.2,4.6,12.7,10.4c1.2,2.7,1.7,6.5-4.6,12.4
		c-1.9,1.8-2.1,4.8-0.4,6.8c1.7,2,4.7,2.3,6.8,0.7c2.8-2.2,6.9-4.6,10.5-4.1c2.3,0.3,4.3,1.7,6.4,4.4c0.4,0.6,0.9,1.3,1.3,2.2
		c0.2,0.3,0.3,0.7,0.5,1.1c0.2,0.5,0.4,0.9,0.6,1.4l0.1,0.3l0.2,0.5c1,2.3,2.2,5.1,3.9,8.2c-1.6,2.9-2.7,5.5-3.8,7.9l-0.5,1.2
		c0.9-2.2,3.3-3.3,5.6-2.9c2.3,0.5,3.9,2.5,3.9,4.8v1l0.1-0.3c1.3-2.9,2.6-5.9,4.6-9.2c1-1.6,1-3.6,0.1-5.2
		c-2.1-3.6-3.5-6.7-4.8-9.5V1337h89.3c16.4,0,31.5,4.2,42.5,12c1.5,1.1,3.5,1.2,5.1,0.3c1.6-0.9,2.7-2.6,2.7-4.4v-111.4
		C925.4,1231.6,924.4,1230,922.7,1229.1z M915.5,1336.1c-11.5-5.9-25.5-9.1-40.4-9.1h-94.3c-2.7,0-5,2.2-5,5v179
		c-0.3-0.2-0.6-0.3-0.8-0.5c-0.3-0.2-0.6-0.3-0.9-0.5c-0.5-0.3-1-0.5-1.6-0.7c-0.3-0.2-0.7-0.3-1.1-0.4c-0.3-0.1-0.6-0.2-0.9-0.2
		c-0.6-0.2-1.2-0.3-1.9-0.4c-1.1-0.1-2.2-0.2-3.3-0.1c0.6-3.8-0.2-7.1-1.3-9.8c-4-9.3-11.3-12.6-17.8-15.5c-2.5-1.1-4.8-2.2-7.1-3.5
		c-1.6-1-3.6-1-5.2,0c-2.2,1.4-4.6,2.4-7.1,3.5c-6.5,2.9-13.8,6.2-17.8,15.5c-1.2,2.6-1.9,6-1.3,9.8c-1.1-0.1-2.2,0-3.3,0.1
		c-0.6,0.1-1.2,0.2-1.9,0.4c-0.3,0.1-0.6,0.2-0.9,0.2c-0.4,0.1-0.7,0.2-1.1,0.4c-0.5,0.2-1,0.4-1.5,0.7c-0.3,0.2-0.6,0.3-0.8,0.5
		c-0.3,0.2-0.6,0.3-0.8,0.5v-179c0-2.7-2.2-5-5-5h-94.3c-14.9,0-28.9,3.2-40.4,9.1v-93.9c11.5,5.9,25.5,9.1,40.4,9.1h94.3
		c2.7,0,5-2.2,5-5v-127.1c0-2.7-2.2-5-5-5h-57.5c-14.9,0-28.9,3.2-40.4,9.1v-93.9c11.5,5.9,25.5,9.1,40.4,9.1h57.5c2.7,0,5-2.2,5-5
		V929.1c0-14.9-3.2-28.9-9.1-40.4h96.4c-5.9,11.5-9.1,25.5-9.1,40.4v104.5c0,2.7,2.2,5,5,5h57.5c14.9,0,28.9-3.2,40.4-9.1v93.9
		c-11.5-5.9-25.5-9.1-40.4-9.1h-57.5c-2.7,0-5,2.2-5,5v127.1c0,2.7,2.2,5,5,5h94.3c14.9,0,28.9-3.2,40.4-9.1V1336.1z M705.7,1577.3
		c0.6-0.1,1.1-0.3,1.6-0.4C706.8,1577,706.3,1577.1,705.7,1577.3z M705.7,1577.3c0.6-0.1,1.1-0.3,1.6-0.4
		C706.8,1577,706.3,1577.1,705.7,1577.3z M705.7,1577.3c0.6-0.1,1.1-0.3,1.6-0.4C706.8,1577,706.3,1577.1,705.7,1577.3z
		 M906.4,1643.4c-19.4,1.5-37.3,11.3-52.3,28.6c-3-23.7-10.4-43-22.1-57.6c1-7.4,1.7-14.1,2.4-21.2c0.3-2.9,0.6-5.9,0.9-8.9
		c4.5-41,10.4-64,17.7-68.6c2.1-1.3,2.9-3.8,2-6.1c-0.9-2.2-3.3-3.5-5.7-3c-6.2,1.4-6.9,1.2-11.3-0.2l-0.6-0.2
		c-3.4-1.1-6.8-0.6-9.8,1.2c-2.6,1.6-4.7,4.3-6.3,7.2c-2.3-1.4-5-2.1-7.7-2.1c-6.2,0.1-11.6,4.4-14.6,11.7l-0.4,0.9
		c-1.7,4.2-2.2,5.3-5.1,8c-1.4,1.3-1.9,3.2-1.4,5c0.7,2.4,1.1,5.3,1.4,8.1c0.7,5.5,1.4,10.7,4.5,13.9c2.5,2.6,5.6,4.2,8.9,4.6
		c-1.1,1-2.4,1.8-3.8,2.2c-4,1.4-8.9,0.1-14.8-3.8c-0.9-0.6-1.8-0.8-2.8-0.8v-14l0.1-0.3c1.3-2.9,2.6-5.9,4.6-9.2
		c1-1.6,1-3.6,0.1-5.2c-2.1-3.6-3.5-6.7-4.8-9.5V1337h89.3c16.4,0,31.5,4.2,42.5,12c1.5,1.1,3.5,1.2,5.1,0.3
		c1.6-0.9,2.7-2.6,2.7-4.4v-111.4c0-1.8-1-3.5-2.7-4.4c-1.6-0.8-3.6-0.7-5.1,0.4c-11,7.7-26.1,12-42.5,12h-89.3v-117.2h52.5
		c16.4,0,31.5,4.2,42.5,12c1.5,1.1,3.5,1.2,5.1,0.4c1.6-0.9,2.7-2.6,2.7-4.4v-111.4c0-1.9-1-3.5-2.7-4.4c-1.6-0.8-3.6-0.7-5.1,0.4
		c-11,7.7-26.1,12-42.5,12h-52.5v-99.6c0-16.4,4.2-31.5,12-42.5c1.1-1.5,1.2-3.5,0.3-5.1c-0.8-1.6-2.5-2.7-4.4-2.7H679.8
		c-1.8,0-3.6,1-4.4,2.7c-0.9,1.6-0.7,3.6,0.3,5.1c7.7,11,12,26.1,12,42.5v99.6h-52.5c-16.4,0-31.5-4.2-42.5-12
		c-1.5-1.1-3.5-1.2-5.1-0.4c-1.6,0.9-2.7,2.6-2.7,4.4v111.4c0,1.9,1,3.5,2.7,4.4c1.6,0.8,3.6,0.7,5.1-0.4c11-7.7,26.1-12,42.5-12
		h52.5v117.2h-89.3c-16.4,0-31.5-4.2-42.5-12c-1.5-1.1-3.5-1.2-5.1-0.4c-1.6,0.9-2.7,2.6-2.7,4.4v111.4c0,1.8,1,3.6,2.7,4.4
		c1.7,0.8,3.6,0.7,5.1-0.3c11-7.7,26.1-12,42.5-12h89.3v187.4c-1.2,2.8-2.6,6-4.8,9.5c-1,1.6-0.9,3.6,0,5.2c2,3.2,3.3,6.2,4.5,9
		l0.2,0.5v14c-1,0-2,0.2-2.8,0.8c-5.9,3.9-10.9,5.1-14.8,3.8c-1.4-0.5-2.6-1.2-3.8-2.2c3.3-0.4,6.4-2,8.9-4.6
		c3.1-3.3,3.8-8.4,4.5-13.9c0.4-2.8,0.8-5.7,1.4-8.1c0.5-1.8,0-3.7-1.4-5c-2.8-2.6-3.3-3.8-5-8l-0.4-0.9c-3-7.3-8.3-11.6-14.6-11.7
		c-2.7-0.1-5.3,0.7-7.6,2c-1.5-2.9-3.6-5.5-6.3-7.2c-3-1.9-6.4-2.3-9.8-1.2l-0.6,0.2c-4.4,1.4-5.1,1.6-11.3,0.2
		c-2.3-0.5-4.8,0.7-5.7,3c-0.9,2.2-0.1,4.8,2,6.1c7.3,4.5,13.2,27.6,17.7,68.6c0.3,3,0.6,6,0.9,9c0.7,6.9,1.4,13.5,2.3,20.7
		c-10.4,14.6-17.3,33.9-20.9,58.5c-15-17.6-32.9-27.4-52.3-28.3c-21.8-1-43.4,8.9-63.1,29V817.4H495v144.5H31.5v9.9H495v146H31.5
		v9.9H495v146H31.5v9.9H495v146H31.5v9.9H495v146H31.5c0,3.3,0.1,6.6,0.2,9.9H495v146H61.9c1.2,3,2.5,6.3,4,9.9H495v146H167
		c3.6,3.4,7.2,6.7,10.7,9.9H495v141.4c0.3,0.1,0.6,0.3,0.8,0.4c1.4,0.7,2.8,1.4,4.1,2.1c1.6-0.8,3.2-1.6,5-2.5
		c20.6-9.8,50.6-18.8,84.7-29.1c26.5-8,56.6-17,85.7-27.6c41.6-15.1,77.8-31.5,114.5-58.4c-58.3,42.1-124.4,62.3-188.5,81.8
		c-31.6,9.6-64.2,19.5-95.6,32v-360.7c19.4-22.5,40.7-33.8,61.7-32.8c19.5,0.9,37.5,12.7,52.1,33.8c1.2,1.7,3.3,2.5,5.3,2
		c2-0.5,3.5-2.2,3.7-4.3c2.9-28.2,9.4-49.6,20.1-65h175.6c12.6,15.7,19.5,36.9,21.1,64.8c0.1,2.1,1.6,3.9,3.6,4.5
		c2,0.6,4.2-0.2,5.4-1.9c14.6-21.1,32.9-33,52.7-34.5c18-1.4,36.1,5.9,51.1,20.6c0.8-3.8,1.6-7.5,2.3-11.3
		C944.4,1648.7,925.5,1642,906.4,1643.4z M775.2,1567.4c-0.2,0.1-0.4,0.1-0.7,0.2c-0.1,0-0.2,0.1-0.3,0.1c-0.2,0-0.4,0.1-0.7,0.1
		c0,0,0,0,0,0c-0.3,0-0.5,0.1-0.8,0.1s-0.5,0-0.8,0c-1.1,0-2.2-0.2-3.2-0.6c-1.5-0.6-2.9-1.5-4.1-2.8c0.7,0.1,1.3,0.1,2,0.1
		c0.4,0,0.8,0,1.1,0c0.4,0,0.7-0.1,1.1-0.1c0.3,0,0.5-0.1,0.8-0.1c0.2,0,0.3-0.1,0.4-0.1c0.3-0.1,0.6-0.1,0.8-0.2
		c0.3-0.1,0.7-0.2,1-0.3c0.3-0.1,0.6-0.2,1-0.3c0.6-0.2,1.2-0.5,1.8-0.8c0.2-0.1,0.4-0.2,0.7-0.4c0.2-0.1,0.3-0.2,0.5-0.3v5.3
		C775.6,1567.2,775.4,1567.3,775.2,1567.4z M598.3,1327.1c-14.9,0-28.9,3.2-40.4,9.1v-93.9c11.5,5.9,25.5,9.1,40.4,9.1h94.3
		c2.7,0,5-2.2,5-5v-127.1c0-2.7-2.2-5-5-5h-57.5c-14.9,0-28.9,3.2-40.4,9.1v-93.9c11.5,5.9,25.5,9.1,40.4,9.1h57.5c2.7,0,5-2.2,5-5
		V929.1c0-14.9-3.2-28.9-9.1-40.4h96.4c-5.9,11.5-9.1,25.5-9.1,40.4v104.5c0,2.7,2.2,5,5,5h57.5c14.9,0,28.9-3.2,40.4-9.1v93.9
		c-11.5-5.9-25.5-9.1-40.4-9.1h-57.5c-2.7,0-5,2.2-5,5v127.1c0,2.7,2.2,5,5,5h94.3c14.9,0,28.9-3.2,40.4-9.1v93.9
		c-11.5-5.9-25.5-9.1-40.4-9.1h-94.3c-2.7,0-5,2.2-5,5v179c-0.3-0.2-0.6-0.3-0.8-0.5c-0.3-0.2-0.6-0.3-0.9-0.5
		c-0.5-0.3-1-0.5-1.6-0.7c-0.3-0.2-0.7-0.3-1.1-0.4c-0.3-0.1-0.6-0.2-0.9-0.2c-0.6-0.2-1.2-0.3-1.9-0.4c-1.1-0.1-2.2-0.2-3.3-0.1
		c0.6-3.8-0.2-7.1-1.3-9.8c-4-9.3-11.3-12.6-17.8-15.5c-2.5-1.1-4.8-2.2-7.1-3.5c-1.6-1-3.6-1-5.2,0c-2.2,1.4-4.6,2.4-7.1,3.5
		c-6.5,2.9-13.8,6.2-17.8,15.5c-1.2,2.6-1.9,6-1.3,9.8c-1.1-0.1-2.2,0-3.3,0.1c-0.6,0.1-1.2,0.2-1.9,0.4c-0.3,0.1-0.6,0.2-0.9,0.2
		c-0.4,0.1-0.7,0.2-1.1,0.4c-0.5,0.2-1,0.4-1.5,0.7c-0.3,0.2-0.6,0.3-0.8,0.5c-0.3,0.2-0.6,0.3-0.8,0.5v-179c0-2.7-2.2-5-5-5H598.3z
		 M697.6,1561.8c0.1,0.1,0.2,0.1,0.3,0.2c0.1,0,0.1,0.1,0.2,0.1c0.2,0.1,0.4,0.3,0.7,0.4c0.3,0.2,0.6,0.3,0.8,0.4c0,0,0,0,0,0
		c0.3,0.1,0.6,0.3,0.9,0.4c0.9,0.4,1.9,0.7,2.9,0.9c0,0,0.1,0,0.1,0c0.3,0.1,0.7,0.1,1,0.2c0.4,0,0.7,0.1,1.1,0.1c0.4,0,0.7,0,1.1,0
		c0.6,0,1.3,0,2-0.1c-1.2,1.2-2.6,2.2-4.1,2.8c-1,0.4-2.1,0.6-3.2,0.6c-0.2,0-0.5,0-0.8,0s-0.5,0-0.8-0.1c0,0,0,0,0,0
		c-0.2,0-0.4-0.1-0.6-0.1c-0.6-0.1-1.1-0.2-1.7-0.4V1561.8z M633.9,1517.1c1.4-0.3,2.8-0.7,4.5-1.2l0.6-0.2c0.6-0.2,1.1-0.1,1.6,0.2
		c2.2,1.3,4.1,5.6,4.6,8.8c0.3,2.2,2.1,3.8,4.2,4.1c2.2,0.3,4.3-0.8,5.2-2.8c1-2.1,3-3.5,5-3.5c2.9,0.1,4.8,3.5,5.6,5.6l0.4,0.9
		c1.6,3.8,2.6,6.3,5.4,9.4c-0.5,2.2-0.8,4.4-1,6.6c-0.4,2.8-1,7.4-1.9,8.4c-1.1,1.2-2.4,1.7-3.8,1.6c-2.1-0.2-4.3-1.8-6.2-4.4
		c-1.4-2-4.1-2.7-6.3-1.6c-2.2,1.1-3.3,3.7-2.5,6c4,11.6,9.8,18.8,17.5,21.5c6.2,2.2,13.2,1.1,20.7-3.1c1,0.6,2,1.1,3,1.6
		c0.5,0.2,1,0.4,1.4,0.6c0.2,0.1,0.5,0.2,0.7,0.3c0.9,0.4,1.9,0.7,2.8,1c0.5,0.1,0.9,0.2,1.4,0.4c0.7,0.2,1.4,0.3,2,0.4
		c0.4,0,0.8,0.1,1.2,0.1c0.1,0,0.1,0,0.2,0c0.1,0,0.3,0,0.4,0c0.1,0,0.3,0,0.4,0c0.1,0,0.3,0,0.4,0h0.1c0.5,0,1,0,1.5-0.1
		c0.1,0,0.1,0,0.2,0c0.6-0.1,1.1-0.1,1.6-0.2c0.3,0,0.6-0.1,0.8-0.2c0.6-0.1,1.1-0.3,1.6-0.4c0.3-0.1,0.5-0.2,0.8-0.3
		c5-1.9,8.7-5.6,11.4-9.6c0.3-0.5,0.7-1,1-1.5c0.5-0.9,1-1.7,1.5-2.6c0.2-0.4,0.4-0.8,0.6-1.2c0.3-0.6,0.6-1.2,0.9-1.7
		c0.1-0.3,0.3-0.6,0.4-0.9c0.2-0.3,0.3-0.6,0.4-0.9c0.2-0.4,0.4-0.9,0.6-1.3c0.2-0.4,0.3-0.8,0.5-1.2c0,0,0,0,0,0
		c0.9-2.1,0.2-4.5-1.5-5.9c-1.8-1.4-4.3-1.4-6.1,0c-8,6.1-13.1,6.5-17.6,1.5c-1.1-1.2-2-3.1-3.1-5.7l-0.6-1.4
		c-1-2.3-2.1-4.9-3.7-7.8c1.7-3.1,2.9-5.9,3.9-8.2l0.4-0.8c0.8-1.9,1.7-3.7,2.5-4.8c2-2.6,4.1-4.1,6.4-4.4c3.7-0.5,7.8,2,10.5,4.1
		c2.1,1.6,5.1,1.3,6.8-0.7c1.7-2,1.5-5-0.4-6.8c-6.3-5.9-5.7-9.7-4.6-12.4c2.5-5.8,6.8-7.7,12.8-10.4c1.8-0.8,3.7-1.7,5.6-2.7
		c1.9,1,3.8,1.8,5.6,2.7c5.9,2.7,10.2,4.6,12.7,10.4c1.2,2.7,1.7,6.5-4.6,12.4c-1.9,1.8-2.1,4.8-0.4,6.8c1.7,2,4.7,2.3,6.8,0.7
		c2.8-2.2,6.9-4.6,10.5-4.1c2.3,0.3,4.3,1.7,6.4,4.4c0.4,0.6,0.9,1.3,1.3,2.2c0.2,0.3,0.3,0.7,0.5,1.1c0.2,0.5,0.4,0.9,0.6,1.4
		l0.1,0.3l0.2,0.5c1,2.3,2.2,5.1,3.9,8.2c-1.6,2.9-2.7,5.5-3.8,7.9l-0.5,1.2c-1.1,2.5-2,4.4-3.1,5.6c-4.5,5-9.6,4.6-17.6-1.5
		c-1.8-1.4-4.3-1.3-6,0c-1.8,1.4-2.4,3.8-1.5,5.9c2.6,6,7.3,17.2,17.3,20.9c3.6,1.3,7.4,1.6,11.4,0.7c0.4-0.1,0.8-0.2,1.2-0.3
		c1.7-0.4,3.4-1.1,5.1-1.9c0,0,0.1,0,0.1-0.1c1-0.4,1.9-1,2.9-1.6c7.5,4.2,14.5,5.3,20.7,3.1c7.7-2.6,13.6-9.9,17.5-21.5
		c0.8-2.3-0.3-4.9-2.5-6c-2.2-1.1-4.9-0.4-6.3,1.6c-1.8,2.6-4.1,4.2-6.1,4.4c-1.4,0.1-2.7-0.4-3.8-1.6c-0.9-1-1.5-5.6-1.9-8.4
		c-0.3-2.2-0.6-4.4-1-6.6c2.8-3.1,3.8-5.6,5.4-9.4l0.4-0.9c0.8-2,2.7-5.5,5.6-5.6c2,0,4,1.4,5,3.5c0.9,2,3,3.1,5.2,2.8
		c2.2-0.3,3.9-2,4.2-4.1c0.5-3.2,2.4-7.5,4.6-8.8c0.6-0.3,1-0.4,1.7-0.2l0.6,0.2c1.7,0.5,3.1,1,4.5,1.2c-5.8,11.1-10,30.6-13.5,61.7
		H647.4C643.8,1547.7,639.6,1528.2,633.9,1517.1z M822.7,1609.6H650.8c-0.7-5.9-1.3-11.6-1.9-17.5c-0.1-1.2-0.2-2.3-0.4-3.5H825
		c-0.1,1.2-0.2,2.3-0.4,3.4C824,1598,823.4,1603.7,822.7,1609.6z M705.7,1577.3c0.6-0.1,1.1-0.3,1.6-0.4
		C706.8,1577,706.3,1577.1,705.7,1577.3z M705.7,1577.3c0.6-0.1,1.1-0.3,1.6-0.4C706.8,1577,706.3,1577.1,705.7,1577.3z
		 M781.9,1542.7c-2.3-0.5-4.6,0.7-5.6,2.9c-1.1,2.5-2,4.4-3.1,5.6c-4.5,5-9.6,4.6-17.6-1.5c-1.8-1.4-4.3-1.3-6,0
		c-1.8,1.4-2.4,3.8-1.5,5.9c2.6,6,7.3,17.2,17.3,20.9c3.6,1.3,7.4,1.6,11.4,0.7c0.4-0.1,0.8-0.2,1.2-0.3c1.7-0.4,3.4-1.1,5.1-1.9
		c0,0,0.1,0,0.1-0.1c1.7-0.8,2.7-2.6,2.7-4.4v-23C785.8,1545.2,784.1,1543.2,781.9,1542.7z M775.2,1567.4c-0.2,0.1-0.4,0.1-0.7,0.2
		c-0.1,0-0.2,0.1-0.3,0.1c-0.2,0-0.4,0.1-0.7,0.1c0,0,0,0,0,0c-0.3,0-0.5,0.1-0.8,0.1s-0.5,0-0.8,0c-1.1,0-2.2-0.2-3.2-0.6
		c-1.5-0.6-2.9-1.5-4.1-2.8c0.7,0.1,1.3,0.1,2,0.1c0.4,0,0.8,0,1.1,0c0.4,0,0.7-0.1,1.1-0.1c0.3,0,0.5-0.1,0.8-0.1
		c0.2,0,0.3-0.1,0.4-0.1c0.3-0.1,0.6-0.1,0.8-0.2c0.3-0.1,0.7-0.2,1-0.3c0.3-0.1,0.6-0.2,1-0.3c0.6-0.2,1.2-0.5,1.8-0.8
		c0.2-0.1,0.4-0.2,0.7-0.4c0.2-0.1,0.3-0.2,0.5-0.3v5.3C775.6,1567.2,775.4,1567.3,775.2,1567.4z M775.2,1567.4
		c0.2-0.1,0.5-0.1,0.7-0.2v0C775.6,1567.2,775.4,1567.3,775.2,1567.4z M723.9,1549.7c-1.8-1.4-4.3-1.4-6.1,0
		c-8,6.1-13.1,6.5-17.6,1.5c-1.1-1.2-2-3.1-3.1-5.7c-0.9-2.2-3.3-3.3-5.6-2.9c-2.3,0.5-3.9,2.5-3.9,4.8v23c0,1.9,1.1,3.6,2.8,4.5
		c0.5,0.2,1,0.4,1.4,0.6c0.2,0.1,0.5,0.2,0.7,0.3c0.9,0.4,1.9,0.7,2.8,1c0.5,0.1,0.9,0.2,1.4,0.4c0.7,0.2,1.4,0.3,2,0.4
		c0.4,0,0.8,0.1,1.2,0.1c0.1,0,0.1,0,0.2,0c0.1,0,0.3,0,0.4,0c0.1,0,0.3,0,0.4,0c0.1,0,0.3,0,0.4,0h0.1c0.5,0,1,0,1.5-0.1
		c0.1,0,0.1,0,0.2,0c0.6-0.1,1.1-0.1,1.6-0.2c0.3,0,0.6-0.1,0.8-0.2c0.6-0.1,1.1-0.3,1.6-0.4c0.3-0.1,0.5-0.2,0.8-0.3
		c5-1.9,8.7-5.6,11.4-9.6c0.3-0.5,0.7-1,1-1.5c0.5-0.9,1-1.7,1.5-2.6c0.2-0.4,0.4-0.8,0.6-1.2c0.3-0.6,0.6-1.2,0.9-1.7
		c0.1-0.3,0.3-0.6,0.4-0.9c0.2-0.3,0.3-0.6,0.4-0.9c0.2-0.4,0.4-0.9,0.6-1.3c0.2-0.4,0.3-0.8,0.5-1.2c0,0,0,0,0,0
		C726.3,1553.5,725.7,1551.1,723.9,1549.7z M704.7,1567.2c-1,0.4-2.1,0.6-3.2,0.6c-0.2,0-0.5,0-0.8,0s-0.5,0-0.8-0.1c0,0,0,0,0,0
		c-0.2,0-0.4-0.1-0.6-0.1c-0.6-0.1-1.1-0.2-1.7-0.4v-5.3c0.1,0.1,0.2,0.1,0.3,0.2c0.1,0,0.1,0.1,0.2,0.1c0.2,0.1,0.4,0.3,0.7,0.4
		c0.3,0.2,0.6,0.3,0.8,0.4c0,0,0,0,0,0c0.3,0.1,0.6,0.3,0.9,0.4c0.9,0.4,1.9,0.7,2.9,0.9c0,0,0.1,0,0.1,0c0.3,0.1,0.7,0.1,1,0.2
		c0.4,0,0.7,0.1,1.1,0.1c0.4,0,0.7,0,1.1,0c0.6,0,1.3,0,2-0.1C707.6,1565.7,706.2,1566.7,704.7,1567.2z M922.7,1229.1
		c-1.6-0.8-3.6-0.7-5.1,0.4c-11,7.7-26.1,12-42.5,12h-89.3v-117.2h52.5c16.4,0,31.5,4.2,42.5,12c1.5,1.1,3.5,1.2,5.1,0.4
		c1.6-0.9,2.7-2.6,2.7-4.4v-111.4c0-1.9-1-3.5-2.7-4.4c-1.6-0.8-3.6-0.7-5.1,0.4c-11,7.7-26.1,12-42.5,12h-52.5v-99.6
		c0-16.4,4.2-31.5,12-42.5c1.1-1.5,1.2-3.5,0.3-5.1c-0.8-1.6-2.5-2.7-4.4-2.7H679.8c-1.8,0-3.6,1-4.4,2.7c-0.9,1.6-0.7,3.6,0.3,5.1
		c7.7,11,12,26.1,12,42.5v99.6h-52.5c-16.4,0-31.5-4.2-42.5-12c-1.5-1.1-3.5-1.2-5.1-0.4c-1.6,0.9-2.7,2.6-2.7,4.4v111.4
		c0,1.9,1,3.5,2.7,4.4c1.6,0.8,3.6,0.7,5.1-0.4c11-7.7,26.1-12,42.5-12h52.5v117.2h-89.3c-16.4,0-31.5-4.2-42.5-12
		c-1.5-1.1-3.5-1.2-5.1-0.4c-1.6,0.9-2.7,2.6-2.7,4.4v111.4c0,1.8,1,3.6,2.7,4.4c1.7,0.8,3.6,0.7,5.1-0.3c11-7.7,26.1-12,42.5-12
		h89.3v188.4c0,2.3,1.6,4.4,3.9,4.9c2.3,0.5,4.6-0.7,5.6-2.9c0.8-1.9,1.7-3.7,2.5-4.8c2-2.6,4.1-4.1,6.4-4.4c3.7-0.5,7.8,2,10.5,4.1
		c2.1,1.6,5.1,1.3,6.8-0.7c1.7-2,1.5-5-0.4-6.8c-6.3-5.9-5.7-9.7-4.6-12.4c2.5-5.8,6.8-7.7,12.8-10.4c1.8-0.8,3.7-1.7,5.6-2.7
		c1.9,1,3.8,1.8,5.6,2.7c5.9,2.7,10.2,4.6,12.7,10.4c1.2,2.7,1.7,6.5-4.6,12.4c-1.9,1.8-2.1,4.8-0.4,6.8c1.7,2,4.7,2.3,6.8,0.7
		c2.8-2.2,6.9-4.6,10.5-4.1c2.3,0.3,4.3,1.7,6.4,4.4c0.4,0.6,0.9,1.3,1.3,2.2c0.2,0.3,0.3,0.7,0.5,1.1c0.2,0.5,0.4,0.9,0.6,1.4
		l0.1,0.3c0.9,1.6,2.6,2.6,4.4,2.6c0.3,0,0.7,0,1-0.1c2.3-0.5,3.9-2.5,3.9-4.9V1337h89.3c16.4,0,31.5,4.2,42.5,12
		c1.5,1.1,3.5,1.2,5.1,0.3c1.6-0.9,2.7-2.6,2.7-4.4v-111.4C925.4,1231.6,924.4,1230,922.7,1229.1z M915.5,1336.1
		c-11.5-5.9-25.5-9.1-40.4-9.1h-94.3c-2.7,0-5,2.2-5,5v179c-0.3-0.2-0.6-0.3-0.8-0.5c-0.3-0.2-0.6-0.3-0.9-0.5
		c-0.5-0.3-1-0.5-1.6-0.7c-0.3-0.2-0.7-0.3-1.1-0.4c-0.3-0.1-0.6-0.2-0.9-0.2c-0.6-0.2-1.2-0.3-1.9-0.4c-1.1-0.1-2.2-0.2-3.3-0.1
		c0.6-3.8-0.2-7.1-1.3-9.8c-4-9.3-11.3-12.6-17.8-15.5c-2.5-1.1-4.8-2.2-7.1-3.5c-1.6-1-3.6-1-5.2,0c-2.2,1.4-4.6,2.4-7.1,3.5
		c-6.5,2.9-13.8,6.2-17.8,15.5c-1.2,2.6-1.9,6-1.3,9.8c-1.1-0.1-2.2,0-3.3,0.1c-0.6,0.1-1.2,0.2-1.9,0.4c-0.3,0.1-0.6,0.2-0.9,0.2
		c-0.4,0.1-0.7,0.2-1.1,0.4c-0.5,0.2-1,0.4-1.5,0.7c-0.3,0.2-0.6,0.3-0.8,0.5c-0.3,0.2-0.6,0.3-0.8,0.5v-179c0-2.7-2.2-5-5-5h-94.3
		c-14.9,0-28.9,3.2-40.4,9.1v-93.9c11.5,5.9,25.5,9.1,40.4,9.1h94.3c2.7,0,5-2.2,5-5v-127.1c0-2.7-2.2-5-5-5h-57.5
		c-14.9,0-28.9,3.2-40.4,9.1v-93.9c11.5,5.9,25.5,9.1,40.4,9.1h57.5c2.7,0,5-2.2,5-5V929.1c0-14.9-3.2-28.9-9.1-40.4h96.4
		c-5.9,11.5-9.1,25.5-9.1,40.4v104.5c0,2.7,2.2,5,5,5h57.5c14.9,0,28.9-3.2,40.4-9.1v93.9c-11.5-5.9-25.5-9.1-40.4-9.1h-57.5
		c-2.7,0-5,2.2-5,5v127.1c0,2.7,2.2,5,5,5h94.3c14.9,0,28.9-3.2,40.4-9.1V1336.1z M495,812.5v1243.7h9.9V812.5H495z M705.7,1577.3
		c0.6-0.1,1.1-0.3,1.6-0.4C706.8,1577,706.3,1577.1,705.7,1577.3z M705.7,1577.3c0.6-0.1,1.1-0.3,1.6-0.4
		C706.8,1577,706.3,1577.1,705.7,1577.3z M705.7,1577.3c0.6-0.1,1.1-0.3,1.6-0.4C706.8,1577,706.3,1577.1,705.7,1577.3z
		 M855.1,1509.6c-0.9-2.2-3.3-3.5-5.7-3c-6.2,1.4-6.9,1.2-11.3-0.2l-0.6-0.2c-3.4-1.1-6.8-0.6-9.8,1.2c-2.6,1.6-4.7,4.3-6.3,7.2
		c-2.3-1.4-5-2.1-7.7-2.1c-6.2,0.1-11.6,4.4-14.6,11.7l-0.4,0.9c-1.7,4.2-2.2,5.3-5.1,8c-1.4,1.3-1.9,3.2-1.4,5
		c0.7,2.4,1.1,5.3,1.4,8.1c0.7,5.5,1.4,10.7,4.5,13.9c2.5,2.6,5.6,4.2,8.9,4.6c-1.1,1-2.4,1.8-3.8,2.2c-4,1.4-8.9,0.1-14.8-3.8
		c-0.9-0.6-1.8-0.8-2.8-0.8c-1,0-1.9,0.3-2.7,0.9c-1.5,1.1-3,1.9-4.4,2.6c-1,0.5-1.9,0.8-2.8,1.1c-0.2,0.1-0.5,0.2-0.7,0.2
		c-0.2,0.1-0.4,0.1-0.7,0.2c-0.1,0-0.2,0.1-0.3,0.1c-0.2,0-0.4,0.1-0.7,0.1c0,0,0,0,0,0c-0.3,0-0.5,0.1-0.8,0.1s-0.5,0-0.8,0
		c-1.1,0-2.2-0.2-3.2-0.6c-1.5-0.6-2.9-1.5-4.1-2.8c0.7,0.1,1.3,0.1,2,0.1c0.4,0,0.8,0,1.1,0c0.4,0,0.7-0.1,1.1-0.1
		c0.3,0,0.5-0.1,0.8-0.1c0.2,0,0.3-0.1,0.4-0.1c0.3-0.1,0.6-0.1,0.8-0.2c0.3-0.1,0.7-0.2,1-0.3c0.3-0.1,0.6-0.2,1-0.3
		c0.6-0.2,1.2-0.5,1.8-0.8c0.2-0.1,0.4-0.2,0.7-0.4c0.2-0.1,0.3-0.2,0.5-0.3c1.8-1.2,3.4-2.6,4.7-4.1c2.2-2.5,3.6-5.4,4.8-8.2l0.4-1
		l0.1-0.3c1.3-2.9,2.6-5.9,4.6-9.2c1-1.6,1-3.6,0.1-5.2c-2.1-3.6-3.5-6.7-4.8-9.5c0-0.1-0.1-0.1-0.1-0.2l-0.3-0.8
		c-1.1-2.6-2.2-4.9-3.6-6.8c-1.8-2.3-3.8-4.2-5.9-5.6c-0.3-0.2-0.6-0.3-0.8-0.5c-0.3-0.2-0.6-0.3-0.9-0.5c-0.5-0.3-1-0.5-1.6-0.7
		c-0.3-0.2-0.7-0.3-1.1-0.4c-0.3-0.1-0.6-0.2-0.9-0.2c-0.6-0.2-1.2-0.3-1.9-0.4c-1.1-0.1-2.2-0.2-3.3-0.1c0.6-3.8-0.2-7.1-1.3-9.8
		c-4-9.3-11.3-12.6-17.8-15.5c-2.5-1.1-4.8-2.2-7.1-3.5c-1.6-1-3.6-1-5.2,0c-2.2,1.4-4.6,2.4-7.1,3.5c-6.5,2.9-13.8,6.2-17.8,15.5
		c-1.2,2.6-1.9,6-1.3,9.8c-1.1-0.1-2.2,0-3.3,0.1c-0.6,0.1-1.2,0.2-1.9,0.4c-0.3,0.1-0.6,0.2-0.9,0.2c-0.4,0.1-0.7,0.2-1.1,0.4
		c-0.5,0.2-1,0.4-1.5,0.7c-0.3,0.2-0.6,0.3-0.8,0.5c-0.3,0.2-0.6,0.3-0.8,0.5c-2.1,1.4-4.1,3.2-5.8,5.6c-1.5,1.9-2.5,4.2-3.7,6.8
		l-0.3,0.8c0,0.1,0,0.1-0.1,0.2c-1.2,2.8-2.6,6-4.8,9.5c-1,1.6-0.9,3.6,0,5.2c2,3.2,3.3,6.2,4.5,9l0.2,0.5l0.4,0.9
		c1.2,2.8,2.6,5.8,4.8,8.2c1.3,1.5,2.9,2.9,4.7,4.1c0.1,0.1,0.2,0.1,0.3,0.2c0.1,0,0.1,0.1,0.2,0.1c0.2,0.1,0.4,0.3,0.7,0.4
		c0.3,0.2,0.6,0.3,0.8,0.4c0,0,0,0,0,0c0.3,0.1,0.6,0.3,0.9,0.4c0.9,0.4,1.9,0.7,2.9,0.9c0,0,0.1,0,0.1,0c0.3,0.1,0.7,0.1,1,0.2
		c0.4,0,0.7,0.1,1.1,0.1c0.4,0,0.7,0,1.1,0c0.6,0,1.3,0,2-0.1c-1.2,1.2-2.6,2.2-4.1,2.8c-1,0.4-2.1,0.6-3.2,0.6c-0.2,0-0.5,0-0.8,0
		s-0.5,0-0.8-0.1c0,0,0,0,0,0c-0.2,0-0.4-0.1-0.6-0.1c-0.6-0.1-1.1-0.2-1.7-0.4c-0.9-0.3-1.8-0.7-2.8-1.1c-1.4-0.7-2.9-1.6-4.4-2.6
		c-0.8-0.6-1.8-0.9-2.7-0.9c-1,0-2,0.2-2.8,0.8c-5.9,3.9-10.9,5.1-14.8,3.8c-1.4-0.5-2.6-1.2-3.8-2.2c3.3-0.4,6.4-2,8.9-4.6
		c3.1-3.3,3.8-8.4,4.5-13.9c0.4-2.8,0.8-5.7,1.4-8.1c0.5-1.8,0-3.7-1.4-5c-2.8-2.6-3.3-3.8-5-8l-0.4-0.9c-3-7.3-8.3-11.6-14.6-11.7
		c-2.7-0.1-5.3,0.7-7.6,2c-1.5-2.9-3.6-5.5-6.3-7.2c-3-1.9-6.4-2.3-9.8-1.2l-0.6,0.2c-4.4,1.4-5.1,1.6-11.3,0.2
		c-2.3-0.5-4.8,0.7-5.7,3c-0.9,2.2-0.1,4.8,2,6.1c7.3,4.5,13.2,27.6,17.7,68.6c0.3,3,0.6,6,0.9,9c0.7,6.9,1.4,13.5,2.3,20.7
		c0.1,0.8,0.2,1.6,0.3,2.3c0.3,2.5,2.4,4.3,4.9,4.3H827c2.5,0,4.6-1.8,4.9-4.3c0.1-0.6,0.2-1.2,0.2-1.8c1-7.4,1.7-14.1,2.4-21.2
		c0.3-2.9,0.6-5.9,0.9-8.9c4.5-41,10.4-64,17.7-68.6C855.2,1514.4,856,1511.8,855.1,1509.6z M824.6,1592.1
		c-0.6,5.9-1.2,11.5-1.9,17.5H650.8c-0.7-5.9-1.3-11.6-1.9-17.5c-0.1-1.2-0.2-2.3-0.4-3.5H825C824.9,1589.8,824.8,1591,824.6,1592.1
		z M826.1,1578.8H647.4c-3.6-31-7.8-50.6-13.5-61.7c1.4-0.3,2.8-0.7,4.5-1.2l0.6-0.2c0.6-0.2,1.1-0.1,1.6,0.2
		c2.2,1.3,4.1,5.6,4.6,8.8c0.3,2.2,2.1,3.8,4.2,4.1c2.2,0.3,4.3-0.8,5.2-2.8c1-2.1,3-3.5,5-3.5c2.9,0.1,4.8,3.5,5.6,5.6l0.4,0.9
		c1.6,3.8,2.6,6.3,5.4,9.4c-0.5,2.2-0.8,4.4-1,6.6c-0.4,2.8-1,7.4-1.9,8.4c-1.1,1.2-2.4,1.7-3.8,1.6c-2.1-0.2-4.3-1.8-6.2-4.4
		c-1.4-2-4.1-2.7-6.3-1.6c-2.2,1.1-3.3,3.7-2.5,6c4,11.6,9.8,18.8,17.5,21.5c6.2,2.2,13.2,1.1,20.7-3.1c1,0.6,2,1.1,3,1.6
		c0.5,0.2,1,0.4,1.4,0.6c0.2,0.1,0.5,0.2,0.7,0.3c0.9,0.4,1.9,0.7,2.8,1c0.5,0.1,0.9,0.2,1.4,0.4c0.7,0.2,1.4,0.3,2,0.4
		c0.4,0,0.8,0.1,1.2,0.1c0.1,0,0.1,0,0.2,0c0.1,0,0.3,0,0.4,0c0.1,0,0.3,0,0.4,0c0.1,0,0.3,0,0.4,0h0.1c0.5,0,1,0,1.5-0.1
		c0.1,0,0.1,0,0.2,0c0.6-0.1,1.1-0.1,1.6-0.2c0.3,0,0.6-0.1,0.8-0.2c0.6-0.1,1.1-0.3,1.6-0.4c0.3-0.1,0.5-0.2,0.8-0.3
		c5-1.9,8.7-5.6,11.4-9.6c0.3-0.5,0.7-1,1-1.5c0.5-0.9,1-1.7,1.5-2.6c0.2-0.4,0.4-0.8,0.6-1.2c0.3-0.6,0.6-1.2,0.9-1.7
		c0.1-0.3,0.3-0.6,0.4-0.9c0.2-0.3,0.3-0.6,0.4-0.9c0.2-0.4,0.4-0.9,0.6-1.3c0.2-0.4,0.3-0.8,0.5-1.2c0,0,0,0,0,0
		c0.9-2.1,0.2-4.5-1.5-5.9c-1.8-1.4-4.3-1.4-6.1,0c-8,6.1-13.1,6.5-17.6,1.5c-1.1-1.2-2-3.1-3.1-5.7l-0.6-1.4
		c-1-2.3-2.1-4.9-3.7-7.8c1.7-3.1,2.9-5.9,3.9-8.2l0.4-0.8c0.8-1.9,1.7-3.7,2.5-4.8c2-2.6,4.1-4.1,6.4-4.4c3.7-0.5,7.8,2,10.5,4.1
		c2.1,1.6,5.1,1.3,6.8-0.7c1.7-2,1.5-5-0.4-6.8c-6.3-5.9-5.7-9.7-4.6-12.4c2.5-5.8,6.8-7.7,12.8-10.4c1.8-0.8,3.7-1.7,5.6-2.7
		c1.9,1,3.8,1.8,5.6,2.7c5.9,2.7,10.2,4.6,12.7,10.4c1.2,2.7,1.7,6.5-4.6,12.4c-1.9,1.8-2.1,4.8-0.4,6.8c1.7,2,4.7,2.3,6.8,0.7
		c2.8-2.2,6.9-4.6,10.5-4.1c2.3,0.3,4.3,1.7,6.4,4.4c0.4,0.6,0.9,1.3,1.3,2.2c0.2,0.3,0.3,0.7,0.5,1.1c0.2,0.5,0.4,0.9,0.6,1.4
		l0.1,0.3l0.2,0.5c1,2.3,2.2,5.1,3.9,8.2c-1.6,2.9-2.7,5.5-3.8,7.9l-0.5,1.2c-1.1,2.5-2,4.4-3.1,5.6c-4.5,5-9.6,4.6-17.6-1.5
		c-1.8-1.4-4.3-1.3-6,0c-1.8,1.4-2.4,3.8-1.5,5.9c2.6,6,7.3,17.2,17.3,20.9c3.6,1.3,7.4,1.6,11.4,0.7c0.4-0.1,0.8-0.2,1.2-0.3
		c1.7-0.4,3.4-1.1,5.1-1.9c0,0,0.1,0,0.1-0.1c1-0.4,1.9-1,2.9-1.6c7.5,4.2,14.5,5.3,20.7,3.1c7.7-2.6,13.6-9.9,17.5-21.5
		c0.8-2.3-0.3-4.9-2.5-6c-2.2-1.1-4.9-0.4-6.3,1.6c-1.8,2.6-4.1,4.2-6.1,4.4c-1.4,0.1-2.7-0.4-3.8-1.6c-0.9-1-1.5-5.6-1.9-8.4
		c-0.3-2.2-0.6-4.4-1-6.6c2.8-3.1,3.8-5.6,5.4-9.4l0.4-0.9c0.8-2,2.7-5.5,5.6-5.6c2,0,4,1.4,5,3.5c0.9,2,3,3.1,5.2,2.8
		c2.2-0.3,3.9-2,4.2-4.1c0.5-3.2,2.4-7.5,4.6-8.8c0.6-0.3,1-0.4,1.7-0.2l0.6,0.2c1.7,0.5,3.1,1,4.5,1.2
		C833.8,1528.2,829.6,1547.7,826.1,1578.8z M705.7,1577.3c0.6-0.1,1.1-0.3,1.6-0.4C706.8,1577,706.3,1577.1,705.7,1577.3z
		 M705.7,1577.3c0.6-0.1,1.1-0.3,1.6-0.4C706.8,1577,706.3,1577.1,705.7,1577.3z M696.8,1577.2c0.7,0.2,1.4,0.3,2,0.4
		C698.1,1577.5,697.4,1577.4,696.8,1577.2z M705.7,1577.3c0.6-0.1,1.1-0.3,1.6-0.4C706.8,1577,706.3,1577.1,705.7,1577.3z
		 M720.9,1553.7l4.6,2c0,0,0,0,0,0L720.9,1553.7z M650.8,1609.6c0,0.3,0.1,0.7,0.1,1h171.7c0-0.3,0.1-0.7,0.1-1H650.8z
		 M647.4,1578.8c0.2,1.4,0.3,2.9,0.5,4.4c0.2,1.9,0.4,3.7,0.6,5.5H825c0.2-1.8,0.4-3.7,0.6-5.5c0.2-1.5,0.3-3,0.5-4.4H647.4z
		 M643.2,1578.8v9.9h187v-9.9H643.2z M456.6,71.3L456.6,71.3l0.1,0C456.7,71.2,456.7,71.3,456.6,71.3z M526.6,126.5l0,0.1
		L526.6,126.5C526.6,126.5,526.6,126.5,526.6,126.5z M526.6,126.4C526.6,126.5,526.6,126.5,526.6,126.4L526.6,126.4L526.6,126.4z
		 M510.9,99.2l-1,0.8l1.4,0.2L510.9,99.2z M405.2,139.9l0.3,0.9l0.5-0.7l0.4-0.5L405.2,139.9z M484.7,213.4L484.7,213.4
		 M502.8,206.1l0.3-0.2l0.5-0.2l1.2-0.9C504.4,205.1,503.7,205.5,502.8,206.1z M505.2,204.5l-0.4,0.3L505.2,204.5l0.1-0.1
		L505.2,204.5z M510.9,99.2l-1,0.8l1.4,0.2L510.9,99.2z M405.2,139.9l0.3,0.9l0.5-0.7l0.4-0.5L405.2,139.9z M456.6,71.3L456.6,71.3
		l0.1,0C456.7,71.2,456.7,71.3,456.6,71.3z M505.2,204.5L505.2,204.5l0.1-0.1L505.2,204.5z M484.7,213.4L484.7,213.4 M502.8,206.1
		l0.3-0.2l0.5-0.2l1.2-0.9C504.4,205.1,503.7,205.5,502.8,206.1z M405.2,139.9l0.3,0.9l0.5-0.7l0.4-0.5L405.2,139.9z M510.9,99.2
		l-1,0.8l1.4,0.2L510.9,99.2z M526.6,126.4C526.6,126.5,526.6,126.5,526.6,126.4L526.6,126.4L526.6,126.4z M526.6,126.5l0,0.1
		L526.6,126.5C526.6,126.5,526.6,126.5,526.6,126.5z M818.8,672.5c-4.1-4-9.4-6.3-15-6.3h-26.1c-5.7,0-11.1,2.3-15.1,6.3
		c-4.1,4.1-6.4,9.5-6.4,15.2v47.9c0,5.7,2.3,11.1,6.4,15.2c4.1,4,9.5,6.1,15.1,6.1h26.1c5.5,0,10.9-2.2,15-6.1l1.2-1.2v-0.8
		c3.1-3.8,5-8.3,5-13.3v-47.9C825,681.9,822.9,676.5,818.8,672.5z M812,735.5l-2.5,5.9l-5.7,2.4h-26.1l-5.8-2.4l-2.4-5.9v-47.9
		l2.4-5.7l5.8-2.5h26.1l5.7,2.5l2.5,5.8V735.5z M726.9,666.1h-85.8l-6.5,6.6v77.5l6.5,6.7h85.8l6.7-6.7v-77.5L726.9,666.1z
		 M720.5,743.7h-72.7v-64.3h72.7V743.7z M499.9,659.8c-28.1,0-70.8,35.5-70.8,65.9c0,10.1,7.9,19,22.5,25.1
		c12.8,5.3,30.1,8.1,48.4,8.1c18.4,0,35.5-2.9,48.4-8.1c14.6-6.1,22.5-15,22.5-25.1C570.8,695.3,527.8,659.8,499.9,659.8z
		 M543.3,738.7c-11.3,4.5-26.9,7.2-43.4,7.2c-16.6,0-32-2.7-43.4-7.2c-9.1-3.9-14.4-8.6-14.4-13c0-22.9,36.4-52.7,57.8-52.7
		c21.4,0,57.8,29.8,57.8,52.7C557.7,730.1,552.5,734.8,543.3,738.7z M358.7,666.1h-85.9l-6.7,6.6v77.5l6.7,6.7h85.9l6.6-6.7v-77.5
		L358.7,666.1z M352,743.7h-72.7v-64.3H352V743.7z M237.3,672.5c-3.9-4-9.4-6.3-15-6.3h-26.1c-5.6,0-11.2,2.3-15,6.3
		c-4,4.1-6.2,9.5-6.2,15.2v47.9c0,5.7,2.2,11.1,6.2,15.2c4,3.9,9.4,6.1,15,6.1h26.1c5.5,0,11-2.2,15-6.1l1.3-1.2v-0.8
		c3.1-3.6,5.1-8.2,5.1-13.3v-47.9C243.7,681.9,241.4,676.5,237.3,672.5z M230.3,735.5l-2.4,5.9l-5.7,2.4h-26.1l-5.8-2.4l-2.3-5.9
		v-47.9l2.3-5.8l5.8-2.5h26.1l5.7,2.5l2.4,5.8V735.5z M525.4,347.8c-6.8-6.1-15.9-9.3-25.5-9.3c-9.6,0-18.7,3.2-25.5,9.3
		c-7.1,6.3-11,14.6-11,23.5c0,8.8,3.8,17.3,11,23.4c6.9,6,15.9,9.3,25.5,9.3c9.6,0,18.7-3.4,25.5-9.3c7.1-6.1,11.1-14.5,11.1-23.4
		C536.5,362.3,532.5,354,525.4,347.8z M516.9,384.9c-4.6,3.8-10.4,5.9-16.9,5.9c-6.3,0-12.4-2.1-16.9-5.9c-4.2-3.8-6.5-8.7-6.5-13.6
		c0-5.1,2.3-9.8,6.6-13.6c4.4-3.9,10.4-6,16.8-6c6.5,0,12.5,2.1,16.9,6c4.1,3.7,6.5,8.4,6.5,13.6C523.3,376.3,521,381.1,516.9,384.9
		z M668.2,403.7c-16,0-29.1,13-29.1,29c0,15.9,13.1,28.9,29.1,28.9c15.9,0,28.9-13,28.9-28.9C697.1,416.7,684.1,403.7,668.2,403.7z
		 M668.2,448.5c-8.8,0-15.9-7.1-15.9-15.8c0-8.8,7.1-15.9,15.9-15.9c8.6,0,15.7,7.1,15.7,15.9C683.8,441.4,676.8,448.5,668.2,448.5z
		 M781.2,424.9c-12.9,0-23.4,10.6-23.4,23.4c0,13.1,10.5,23.5,23.4,23.5c12.9,0,23.4-10.4,23.4-23.5
		C804.6,435.4,794.1,424.9,781.2,424.9z M781.2,458.6c-5.7,0-10.3-4.6-10.3-10.3c0-5.5,4.6-10.2,10.3-10.2c5.6,0,10.3,4.7,10.3,10.2
		C791.5,454.1,786.9,458.6,781.2,458.6z M331.7,403.7c-7.6,0-15,3.1-20.4,8.6c-5.5,5.4-8.5,12.8-8.5,20.4c0,7.7,3.1,15.1,8.5,20.4
		c5.4,5.5,12.8,8.5,20.4,8.5c16.1,0,29.1-13,29.1-28.9C360.8,416.7,347.8,403.7,331.7,403.7z M331.9,448.5
		c-8.8,0-15.9-7.1-15.9-15.8c0-8.8,7.1-15.9,15.9-15.9c8.6,0,15.7,7.1,15.7,15.9C347.6,441.4,340.5,448.5,331.9,448.5z M218.6,424.9
		c-12.9,0-23.5,10.6-23.5,23.4c0,13.1,10.6,23.5,23.5,23.5c12.9,0,23.4-10.4,23.4-23.5C242,435.4,231.6,424.9,218.6,424.9z
		 M218.6,458.6c-5.8,0-10.3-4.6-10.3-10.3c0-5.5,4.6-10.2,10.3-10.2c5.6,0,10.2,4.7,10.2,10.2C228.8,454.1,224.3,458.6,218.6,458.6z
		 M505.2,204.5l-0.4,0.3L505.2,204.5l0.1-0.1L505.2,204.5z M931.2,489.6c0-11.2-9.2-20.2-20.4-20.2c-11.3,0-20.4,8.9-20.4,20.2
		c0,9,6.1,16.5,14.5,19c-0.5,0.9-0.6,2-0.6,3.3v82.7l-29.7-96.3l-5.8-4c12.2-0.3,22.2-10.3,22.2-22.5c0-7.7-3.9-14.8-10.5-19
		c-5.3-3.4-11.4-4.3-17.2-3l-16.3-61.9l-2.4-3.5L648.7,251.6l-3.7-1.2H531.6c0.4-0.7,0.8-1.5,1.1-2.2c3.3-7.6,3.4-16.4,0.2-24.6
		c-3.8-9.9-11.2-16.7-20.7-19.2l-22.8-59.3l30.7-11.8c3.3,1.9,6.9,2.8,10.6,2.8c2.9,0,6-0.6,9-1.8c14.3-5.5,20.4-20.5,14.5-35.7
		c-2.8-7.4-7.9-13.1-14.2-16.1c-6.3-3.1-13.7-3.3-20.6-0.6c-6.8,2.7-11.6,7.5-13.8,13.9L475,107.6l-11.4-29.8
		c3.3-5.9,3.7-12.7,1-19.6c-2.7-6.9-7.7-12.2-14.2-14.8c-6.5-2.6-14.1-2.5-21.5,0.3c-7.4,2.8-13.1,7.9-16.1,14.2
		c-3,6.3-3.3,13.7-0.6,20.6c2.6,6.9,7.5,11.7,13.9,13.8l11.4,29.8l-30.7,11.8c-5.8-3.3-12.7-3.7-19.5-1.1
		c-6.9,2.6-12.2,7.7-14.9,14.2c-2.7,6.5-2.6,14.1,0.3,21.5c2.8,7.4,7.8,13.1,14.1,16.2c3.4,1.7,7.1,2.5,10.9,2.5
		c3.2,0,6.5-0.6,9.7-1.8c6.9-2.6,11.7-7.5,13.9-13.9l30.7-11.8l22.7,59.2c-5.5,8.3-6.5,18.5-2.7,28.4c0.4,1.1,0.9,2.2,1.5,3.3H355
		l-3.8,1.2L155.7,384.2l-2.7,3.8L137.1,450c-5.9-1.4-12.2-0.5-17.5,2.9c-6.7,4.1-10.7,11.2-10.7,19c0,12.2,10.1,22.2,22.3,22.5l-6,4
		l-29.6,96.4V512c0-1.3-0.2-2.4-0.6-3.2c3.1-1.1,6.1-2.4,8.4-4.9c3.8-3.8,6-8.9,6-14.2c0-5.4-2.2-10.4-6-14.3
		c-3.9-3.8-9.1-5.9-14.5-5.9c-11,0-20.2,8.9-20.2,20.2c0,9.1,6.3,16.5,14.4,19.1c-0.4,0.8-0.6,1.9-0.6,3.2v295.5h834.8l0-295.5
		c0-1.3-0.3-2.4-0.6-3.2C924.9,506.2,931.2,498.7,931.2,489.6z M81.4,491l7.1-7.1l7.1,7.1l-7.1,7.1L81.4,491z M891.5,600.4H845
		l23.2-75.9L891.5,600.4z M868.1,463.6c5.2,0,9.7,4.3,9.7,9.6c0,5.2-4.4,9.4-9.7,9.4c-5.1,0-9.4-4.2-9.4-9.4
		C858.7,468,863.2,463.6,868.1,463.6z M605.7,263.6h37.2l191.9,130.8l14.6,56.8c-23.8-41.9-56.7-79.1-96.7-107.9
		c-43.3-31.2-94.1-52.2-147-61.2V263.6z M745,353.9c42.7,30.7,77.4,71.1,100.6,117l-0.2,2.2c0,12.3,10.1,22.3,22.3,22.6l-6,4l-27,88
		v-59.2c0-14.3-5.7-27.7-15.8-37.9C809,480.6,795.6,475,781.2,475c-29.5,0-53.6,24.1-53.6,53.6v67.1l-53.5-127.2l-6.2-4l-6,4
		l-55.4,131.9h-0.7l-0.2-304.9C655.9,304.5,704.2,324.5,745,353.9z M821.7,528.6v71.8h-80.9v-71.8c0-22.3,18.2-40.4,40.4-40.4
		c10.7,0,21,4.3,28.5,11.9C817.5,507.7,821.7,517.9,821.7,528.6z M715.4,600.4h-94.6L668.1,488L715.4,600.4z M563.9,263.6h28.6
		v196.9c-4.9-9-10.5-17.3-17.8-24.7l-10.9-9.2V263.6z M502.6,219c0.6-0.3,1.2-0.6,1.8-0.9c0.2-0.1,0.4-0.2,0.6-0.3
		c0.4-0.2,0.7-0.4,1.1-0.6c0.3-0.2,0.7-0.4,1-0.6c0.4-0.2,0.7-0.4,1-0.6l1.6-0.6c5.7,1.7,10.2,6,12.6,12.2c2.1,5.4,2.1,11.1,0,16
		c-2.2,5.1-6.5,9-12.3,11.2c-0.4,0.2-0.8,0.3-1.2,0.4l-3.6,0.9h-7.8c-6.8-1.3-12.2-6.1-14.9-13.1c-2.4-6.2-1.9-12.4,1.2-17.5
		l1.6-0.6c4.2-0.8,8.1-2,11.8-3.4C499.1,220.7,500.9,219.9,502.6,219C502.6,219.1,502.6,219.1,502.6,219z M526.6,126.6l0-0.1
		C526.6,126.5,526.6,126.5,526.6,126.6L526.6,126.6z M523.5,92.5c4-1.6,8-1.5,11.6,0.2c3.8,1.8,6.7,5.3,8.5,10
		c3.6,9.4,0.4,17.8-8,21.1c-3.5,1.4-6.6,1.3-9.4-0.1c0-0.2-0.1-0.4-0.1-0.6c-0.5-2.9-1.6-7.4-3.5-12.3c-1.5-3.8-3.3-7.6-5.7-11.5
		c-0.1-0.2-0.2-0.3-0.3-0.5C517.8,96,520,93.9,523.5,92.5z M456.6,71.3c0,0,0.1,0,0.1,0L456.6,71.3L456.6,71.3z M423,62.8
		c1.8-3.7,5.3-6.7,10-8.5c4.7-1.8,9.3-2,13.1-0.4c3.7,1.5,6.4,4.4,7.9,8.4c1.4,3.5,1.3,6.6-0.1,9.4c-0.2,0-0.4,0.1-0.6,0.1
		c-3,0.6-7.5,1.6-12.3,3.5c-4.9,1.9-9,4.1-11.5,5.7c-0.2,0.1-0.3,0.2-0.5,0.3c-2.9-1.1-5-3.4-6.3-6.9
		C421.2,70.3,421.2,66.3,423,62.8z M403.2,174.6c-4,1.5-8,1.4-11.6-0.3c-3.7-1.8-6.7-5.3-8.5-10c-1.8-4.7-1.9-9.3-0.4-13.1
		c1.5-3.6,4.4-6.4,8.4-7.9c3.5-1.3,6.6-1.3,9.4,0.1c0,0.2,0.1,0.3,0.1,0.5c0.5,2.9,1.6,7.5,3.5,12.4c1.9,4.8,4.1,8.9,5.7,11.5
		c0.1,0.2,0.2,0.3,0.3,0.5C409.1,171.2,406.8,173.3,403.2,174.6z M458.4,144.9l-39.8,15.3c-1.2-2.1-2.6-4.8-3.8-7.9
		c-1.2-3.2-2-6.2-2.5-8.4l39.8-15.3l-14.9-38.9c2-1.1,4.8-2.5,8-3.8c3.1-1.2,6.1-2,8.4-2.5l14.9,38.9l39.8-15.3
		c1.5,2.7,2.8,5.4,3.8,7.9c1.2,3.2,2,6.2,2.5,8.4l-39.8,15.3l26.3,68.5c-1.2,0.7-2.7,1.5-4.3,2.2c-1.1,0.5-2.3,1-3.6,1.5
		c-2.6,1-5.4,1.9-8.4,2.5l0,0 M484.7,213.4 M449.1,263.6h36.5c3.1,1.9,6.6,3.2,10.3,3.8l0.5,0.1h10.2l5.2-1.3l0.4-0.1
		c0.6-0.2,1.2-0.4,1.9-0.7c1.4-0.5,2.8-1.2,4-1.9h32.7v154.5c-15.6-8.6-33.1-13.3-50.8-13.3c-17.8,0-35.2,4.7-50.8,13.4V263.6z
		 M407.3,263.6h28.6v163l-10.8,9.2c-7.2,7.2-12.9,15.7-17.8,24.7V263.6z M407.3,506.4c0.9-22.9,10.5-44.7,27.2-61.2
		c17.5-17.6,40.8-27.3,65.4-27.3c24.6,0,47.9,9.8,65.5,27.3c16.6,16.5,26.1,38.4,27.1,61.4v93.8H407.3V506.4z M165.2,394.4
		L357,263.6h37.2v18.5c-53,9-103.8,30.1-147,61.2c-39.7,28.6-72.3,65.5-96.3,107.2L165.2,394.4z M148.9,487.8
		c3.8-4.5,5.4-10.3,5-16.1c23.2-46.3,58-86.9,100.8-117.7c41.1-29.4,89.1-49.4,139.3-58.4L394,600.4h-0.7l-55.5-131.9l-6.1-4l-5.8,4
		l-53.5,127.2v-67.1c0-29.5-24.2-53.6-53.7-53.6c-14.3,0-27.7,5.6-37.9,15.7c-10.2,10.1-15.8,23.6-15.8,37.9v59.5l-26.8-88.3
		l-6.1-4.1C138.6,495.5,144.6,492.7,148.9,487.8z M379.1,600.4h-94.5L331.7,488L379.1,600.4z M259.1,528.6v71.8h-80.9v-71.8
		c0-10.8,4.2-21,11.9-28.5c7.6-7.6,17.8-11.9,28.6-11.9C240.9,488.2,259.1,506.4,259.1,528.6z M122.2,473.1c0-5.3,4.1-9.6,9.5-9.6
		c5.1,0,9.5,4.3,9.5,9.6c0,5.2-4.3,9.4-9.5,9.4C126.3,482.5,122.2,478.3,122.2,473.1z M131.7,524.5l23.2,75.8h-46.6L131.7,524.5z
		 M95.6,613.7h808.6v21.7H95.6V613.7z M592.6,648.7v124.5H407.3V648.7H592.6z M95.6,679.3h43.6v64.4H95.6V679.3z M95.6,756.9h50.3
		l6.5-6.7v-77.5l-6.5-6.6H95.6v-17.5h298.5v124.6H95.6V756.9z M904.2,804.2H95.6v-17.8h808.6V804.2z M904.3,743.7h-43.6v-64.3h43.6
		V743.7z M904.3,666.1h-50.3l-6.6,6.6v77.5l6.6,6.7h50.3v16.3H605.7V648.6h298.5V666.1z M910.8,498.2l-7.1-7.1l7.1-7.1l7.1,7.1
		L910.8,498.2z"/>
</g>
</svg>
