<svg xmlns="http://www.w3.org/2000/svg" viewBox="0 0 620 180"><defs><style>.a{fill:#34aec5;}.b,.c{fill:none;stroke:#34aec5;stroke-linecap:round;stroke-linejoin:round;}.b{stroke-width:2.5px;}.c{stroke-width:2px;}</style></defs><path class="a" d="M72.05,133.58H69.92a1.85,1.85,0,0,0-.18-.59,1.3,1.3,0,0,0-.35-.45,1.42,1.42,0,0,0-.51-.29,2,2,0,0,0-.65-.1,1.9,1.9,0,0,0-1.1.31,2,2,0,0,0-.7.9,3.76,3.76,0,0,0-.25,1.42,3.86,3.86,0,0,0,.25,1.46,1.84,1.84,0,0,0,1.78,1.18,2.11,2.11,0,0,0,.64-.09,1.75,1.75,0,0,0,.51-.26,1.68,1.68,0,0,0,.36-.43,1.85,1.85,0,0,0,.2-.56h2.13a3.18,3.18,0,0,1-.34,1.14,3.57,3.57,0,0,1-.76,1,3.52,3.52,0,0,1-1.18.73,4.23,4.23,0,0,1-1.6.28,4.35,4.35,0,0,1-2.12-.52,3.77,3.77,0,0,1-1.48-1.53,5.73,5.73,0,0,1,0-4.88,3.83,3.83,0,0,1,1.49-1.52,4.22,4.22,0,0,1,2.1-.52,4.62,4.62,0,0,1,1.47.22,3.63,3.63,0,0,1,1.18.64,3.22,3.22,0,0,1,.83,1A3.82,3.82,0,0,1,72.05,133.58Z"/><path class="a" d="M189.36,133.58h-2.14a1.62,1.62,0,0,0-.17-.59,1.43,1.43,0,0,0-.35-.45,1.51,1.51,0,0,0-.51-.29,2,2,0,0,0-.66-.1,1.86,1.86,0,0,0-1.09.31,1.93,1.93,0,0,0-.7.9,3.57,3.57,0,0,0-.25,1.42,3.68,3.68,0,0,0,.25,1.46,1.82,1.82,0,0,0,1.78,1.18,2.2,2.2,0,0,0,.64-.09,1.58,1.58,0,0,0,.5-.26,1.53,1.53,0,0,0,.37-.43,1.61,1.61,0,0,0,.19-.56h2.14a3.18,3.18,0,0,1-.34,1.14,3.76,3.76,0,0,1-.76,1,3.56,3.56,0,0,1-1.19.73,4.14,4.14,0,0,1-1.59.28,4.35,4.35,0,0,1-2.12-.52,3.7,3.7,0,0,1-1.48-1.53,5.09,5.09,0,0,1-.54-2.44,5,5,0,0,1,.55-2.44,3.83,3.83,0,0,1,1.49-1.52,4.19,4.19,0,0,1,2.1-.52,4.56,4.56,0,0,1,1.46.22,3.68,3.68,0,0,1,1.19.64,3.22,3.22,0,0,1,.83,1A4,4,0,0,1,189.36,133.58Z"/><path class="a" d="M190.93,135.66v-1.72h6.17v1.72Zm2.23,2.23v-6.17h1.71v6.17Z"/><path class="a" d="M199.16,135.66v-1.72h6.17v1.72Zm2.23,2.23v-6.17h1.72v6.17Z"/><path class="a" d="M296.51,139.15v-8.73h3.6a3.61,3.61,0,0,1,1.7.38,2.81,2.81,0,0,1,1.1,1.06,3.14,3.14,0,0,1,.39,1.58,3,3,0,0,1-.4,1.58,2.65,2.65,0,0,1-1.12,1,3.87,3.87,0,0,1-1.73.37h-2.22v-1.66h1.83a1.75,1.75,0,0,0,.8-.17,1.23,1.23,0,0,0,.49-.47,1.61,1.61,0,0,0,0-1.4,1.21,1.21,0,0,0-.49-.46,1.93,1.93,0,0,0-.8-.16h-1v7Z"/><path class="a" d="M305.61,141.6a5.27,5.27,0,0,1-.71,0,2.59,2.59,0,0,1-.57-.16l.46-1.51a2.11,2.11,0,0,0,.55.12.79.79,0,0,0,.44-.08.59.59,0,0,0,.27-.34l.09-.19-2.33-6.79H306l1.21,4.67h.06l1.23-4.67h2.19l-2.47,7.17a2.78,2.78,0,0,1-.5.95,2.26,2.26,0,0,1-.84.65A3.12,3.12,0,0,1,305.61,141.6Z"/><path class="a" d="M315.17,132.6v1.54H311V132.6ZM311.91,131H314v6.06a.68.68,0,0,0,.06.31.44.44,0,0,0,.19.17.79.79,0,0,0,.28,0,1.18,1.18,0,0,0,.26,0l.2,0,.31,1.5-.42.11a3.59,3.59,0,0,1-.64.08,3.06,3.06,0,0,1-1.26-.17,1.55,1.55,0,0,1-.79-.65,1.89,1.89,0,0,1-.27-1.1Z"/><path class="a" d="M318.46,135.42v3.73h-2.08v-8.73h2v3.38h.07a1.9,1.9,0,0,1,.73-.94,2.15,2.15,0,0,1,1.24-.34,2.32,2.32,0,0,1,1.2.3,2.05,2.05,0,0,1,.79.86,2.68,2.68,0,0,1,.28,1.3v4.17h-2.08v-3.76a1.27,1.27,0,0,0-.27-.86,1,1,0,0,0-.78-.3,1.11,1.11,0,0,0-.58.14.91.91,0,0,0-.39.41A1.38,1.38,0,0,0,318.46,135.42Z"/><path class="a" d="M327.05,139.27a3.56,3.56,0,0,1-1.77-.42,2.82,2.82,0,0,1-1.13-1.19,4.09,4.09,0,0,1,0-3.53,2.82,2.82,0,0,1,1.13-1.19,3.56,3.56,0,0,1,1.77-.42,3.51,3.51,0,0,1,1.77.42,2.79,2.79,0,0,1,1.14,1.19,4.09,4.09,0,0,1,0,3.53,2.79,2.79,0,0,1-1.14,1.19A3.51,3.51,0,0,1,327.05,139.27Zm0-1.57a.92.92,0,0,0,.63-.23,1.38,1.38,0,0,0,.4-.64,3.29,3.29,0,0,0,0-1.9,1.38,1.38,0,0,0-.4-.64.92.92,0,0,0-.63-.23,1,1,0,0,0-.66.23,1.46,1.46,0,0,0-.4.64,3.29,3.29,0,0,0,0,1.9,1.46,1.46,0,0,0,.4.64A1,1,0,0,0,327.07,137.7Z"/><path class="a" d="M333.51,135.42v3.73h-2.08V132.6h2v1.2h.07a1.89,1.89,0,0,1,.75-.94,2.17,2.17,0,0,1,1.24-.34,2.23,2.23,0,0,1,1.2.31,2.08,2.08,0,0,1,.8.86,2.79,2.79,0,0,1,.28,1.29v4.17h-2.09v-3.76a1.27,1.27,0,0,0-.27-.86,1,1,0,0,0-.78-.3,1,1,0,0,0-.57.14.91.91,0,0,0-.39.41A1.51,1.51,0,0,0,333.51,135.42Z"/><path class="a" d="M422.55,130.42h2.61l2.21,5.4h.11l2.21-5.4h2.61v8.73h-2.05v-5.36h-.07l-2.1,5.3h-1.31l-2.1-5.33h-.07v5.39h-2.05Z"/><path class="a" d="M435.51,139.15h-2.26l2.94-8.73H439l2.94,8.73h-2.26l-2.05-6.53h-.07Zm-.3-3.44H440v1.61h-4.74Z"/><path class="a" d="M441.51,132.13v-1.71h7.38v1.71h-2.65v7h-2.08v-7Z"/><path class="a" d="M449.92,139.15v-8.73H452v7h3.63v1.71Z"/><path class="a" d="M458.75,139.15h-2.27l2.95-8.73h2.81l2.94,8.73h-2.27l-2.05-6.53h-.06Zm-.3-3.44h4.74v1.61h-4.74Z"/><path class="a" d="M466.12,139.15v-8.73h3.64a4.13,4.13,0,0,1,1.64.28,2,2,0,0,1,1.34,1.93,1.86,1.86,0,0,1-.21.89,1.78,1.78,0,0,1-.58.64,2.25,2.25,0,0,1-.85.36v.09a2.06,2.06,0,0,1,1,.28,2,2,0,0,1,.72.72,2.07,2.07,0,0,1,.28,1.1,2.23,2.23,0,0,1-.36,1.25,2.37,2.37,0,0,1-1,.87,3.87,3.87,0,0,1-1.64.32Zm2.11-5.14h1.17a1.48,1.48,0,0,0,.61-.12.87.87,0,0,0,.42-.33.89.89,0,0,0,.15-.52.82.82,0,0,0-.31-.69,1.26,1.26,0,0,0-.84-.25h-1.2Zm0,3.44h1.31a1.65,1.65,0,0,0,1-.26.87.87,0,0,0,.32-.73,1,1,0,0,0-.6-1,1.65,1.65,0,0,0-.7-.13h-1.34Z"/><path class="a" d="M537.05,139.15v-8.73h2.11v7h3.63v1.72Z"/><path class="a" d="M545.73,139.26a2.75,2.75,0,0,1-1.11-.21,1.7,1.7,0,0,1-.76-.64,1.93,1.93,0,0,1-.28-1.08,2,2,0,0,1,.19-.92,1.64,1.64,0,0,1,.53-.61,2.59,2.59,0,0,1,.77-.35,5.59,5.59,0,0,1,.94-.17c.37,0,.67-.07.9-.11a1.22,1.22,0,0,0,.5-.16.36.36,0,0,0,.15-.31v0a.61.61,0,0,0-.22-.51,1,1,0,0,0-.61-.18,1.13,1.13,0,0,0-.67.18.83.83,0,0,0-.32.49l-1.92-.06a2.37,2.37,0,0,1,.44-1.07,2.47,2.47,0,0,1,1-.74,3.79,3.79,0,0,1,1.5-.27,4.67,4.67,0,0,1,1.16.14,2.89,2.89,0,0,1,.92.43,2.08,2.08,0,0,1,.61.68,2,2,0,0,1,.21.93v4.45h-2v-.91h0a2,2,0,0,1-.44.56,1.88,1.88,0,0,1-.64.34A2.62,2.62,0,0,1,545.73,139.26Zm.64-1.37a1.33,1.33,0,0,0,.61-.13,1.06,1.06,0,0,0,.43-.38,1,1,0,0,0,.17-.56v-.62l-.22.08-.27.08-.31.06-.3,0a1.56,1.56,0,0,0-.5.15.75.75,0,0,0-.32.25.67.67,0,0,0-.11.37.57.57,0,0,0,.23.49A1,1,0,0,0,546.37,137.89Z"/><path class="a" d="M550.91,139.15v-8.73H553v3.3h0a2,2,0,0,1,.36-.57,1.79,1.79,0,0,1,.61-.46,2.12,2.12,0,0,1,.88-.17,2.51,2.51,0,0,1,1.28.35,2.65,2.65,0,0,1,1,1.11,4.37,4.37,0,0,1,.37,1.9,4.28,4.28,0,0,1-.36,1.86,2.59,2.59,0,0,1-.94,1.13,2.44,2.44,0,0,1-1.32.37,2.06,2.06,0,0,1-.86-.16,1.77,1.77,0,0,1-.6-.43,1.85,1.85,0,0,1-.38-.56H553v1.06Zm2-3.28a2.63,2.63,0,0,0,.15.93,1.26,1.26,0,0,0,.41.6,1.07,1.07,0,0,0,1.3,0,1.26,1.26,0,0,0,.41-.6,2.89,2.89,0,0,0,.14-.93,2.76,2.76,0,0,0-.14-.91,1.26,1.26,0,0,0-.41-.6,1,1,0,0,0-.65-.22,1,1,0,0,0-.65.21,1.26,1.26,0,0,0-.41.6A2.57,2.57,0,0,0,553,135.87Z"/><path class="a" d="M559.78,130.42l2,6.39h.07l2-6.39h2.36l-3,8.73h-2.81l-2.94-8.73Z"/><path class="a" d="M569.17,130.42v8.73h-2.11v-8.73Z"/><path class="a" d="M570.49,139.15v-8.73h6.08v1.71h-4v1.79h3.66v1.72H572.6v1.79h4v1.72Z"/><path class="a" d="M580,139.15l-2.54-8.73h2.33l1.32,5.72h.07l1.5-5.72h1.9l1.51,5.73h.07l1.32-5.73h2.33l-2.54,8.73h-2l-1.57-5.29h-.07L582,139.15Z"/><path class="b" d="M317.26,37.57a56.89,56.89,0,0,0-9.31.79c-8.24,1.46-9.73,4.5-9.73,10.08v7.43h19.46v2.47H290.91a12.19,12.19,0,0,0-12.17,9.88,36.51,36.51,0,0,0,0,19.78c1.4,5.78,4.69,9.88,10.35,9.88h6.72V89A12.37,12.37,0,0,1,308,76.87h19.46A9.8,9.8,0,0,0,337.15,67h0V48.49c0-5.27-4.45-9.22-9.73-10.08A61.82,61.82,0,0,0,317.26,37.57Zm-10.54,6a3.72,3.72,0,1,1-3.65,3.78v-.05A3.71,3.71,0,0,1,306.72,43.6Z"/><path class="b" d="M339.52,58.37V67a12.5,12.5,0,0,1-12.16,12.35H308a9.92,9.92,0,0,0-9.73,9.88v18.48c0,5.28,4.59,8.41,9.73,9.9a32.78,32.78,0,0,0,19.46,0c4.9-1.43,9.73-4.28,9.73-9.9v-7.36H317.68V97.91h29.18c5.65,0,7.77-4,9.73-9.88s2-12,0-19.78c-1.39-5.62-4.06-9.88-9.73-9.88Zm-10.94,47a3.72,3.72,0,1,1-3.66,3.76V109a3.66,3.66,0,0,1,3.63-3.7h0Z"/><path class="b" d="M210.49,37H178.85a13.93,13.93,0,0,0-12.06,7L151,71.38a13.92,13.92,0,0,0,0,13.93l15.82,27.4a13.93,13.93,0,0,0,12.06,7h31.64a13.91,13.91,0,0,0,12.06-7l15.82-27.4a13.92,13.92,0,0,0,0-13.93L222.55,44A13.91,13.91,0,0,0,210.49,37Z"/><polygon class="c" points="208.77 76.98 208.77 80.22 203.26 80.22 203.26 85.73 200.02 85.73 200.02 80.22 194.51 80.22 194.51 76.98 200.02 76.98 200.02 71.47 203.26 71.47 203.26 76.98 208.77 76.98"/><polygon class="c" points="228.3 76.98 228.3 80.22 222.78 80.22 222.78 85.73 219.55 85.73 219.55 80.22 214.03 80.22 214.03 76.98 219.55 76.98 219.55 71.47 222.78 71.47 222.78 76.98 228.3 76.98"/><path class="b" d="M194.35,107.64A30.09,30.09,0,1,1,220.4,62.5l-8.59,5L207.38,70a15.08,15.08,0,1,0,0,15.16l7,3.88,6.07,3.53A30.19,30.19,0,0,1,194.35,107.64Z"/><path class="b" d="M87.44,37H55.81a13.93,13.93,0,0,0-12.07,7L27.92,71.38a14,14,0,0,0,0,13.93l15.82,27.4a13.93,13.93,0,0,0,12.07,7H87.44a13.93,13.93,0,0,0,12.07-7l15.81-27.4a13.92,13.92,0,0,0,0-13.93L99.51,44A13.93,13.93,0,0,0,87.44,37Z"/><path class="b" d="M72.53,106.49A28.15,28.15,0,1,1,96.89,64.27l-8,4.66-4.13,2.38a14.11,14.11,0,1,0,0,14.18l6.51,3.63,5.68,3.3A28.23,28.23,0,0,1,72.53,106.49Z"/><polygon class="c" points="564.39 75.59 564.39 80.28 556.39 80.28 556.39 88.27 551.7 88.27 551.7 80.28 543.7 80.28 543.7 75.59 551.7 75.59 551.7 67.59 556.39 67.59 556.39 75.59 564.39 75.59"/><path class="c" d="M589.83,72.67,540.42,47.55a4,4,0,0,0-6.74,2.79v56a4,4,0,0,0,6.74,2.79L589.6,86.2A7.53,7.53,0,0,0,589.83,72.67Z"/><path class="a" d="M437.39,108.83l-.57-1.37c-.23-.56-.47-1.16-.55-1.33l-.3-.68c-.09-.21-.22-.49-.27-.62-.32-.75-.43-1-1.09-2.4-.35-.76-1.57-3.18-2-4a2.24,2.24,0,0,1-.25-.57s.52-.19,1.13-.39a14.07,14.07,0,0,0,8.79-8.09c.13-.3.15-.34.38-.94l.19-.49a5.1,5.1,0,0,0,.17-.49c.06-.19.16-.44.21-.57s.12-.29.15-.38.18-.52.33-1,.36-1,.45-1.32.3-.9.46-1.39.31-1,.34-1.06.38-1.18.53-1.7c0-.19.17-.58.26-.87s.21-.68.26-.86.14-.48.19-.65a5.94,5.94,0,0,0,.18-.6c.05-.17.17-.61.28-1s.23-.82.28-1a4.46,4.46,0,0,1,.14-.49c.06-.2.24-.86.39-1.4.07-.28.12-.47.35-1.28.05-.17.17-.63.27-1,.32-1.2.35-1.31.42-1.55s.19-.7.34-1.28.31-1.18.35-1.32l.12-.46c0-.1.14-.58.26-1s.26-1,.29-1.17.12-.51.19-.76c.12-.43.18-.68.32-1.3.07-.27.16-.65.31-1.23,0-.14.11-.41.15-.6s.16-.71.27-1.15.28-1.18.38-1.62.22-.92.26-1a1.24,1.24,0,0,0,.08-.37,1.56,1.56,0,0,1,.07-.37c.07-.24.24-1,.38-1.59.08-.38.4-1.86.53-2.42,0-.16.16-.72.26-1.24l.27-1.29c0-.18.14-.66.22-1.05.23-1.08.41-1.58.61-1.7s.42.16.56.5a9.26,9.26,0,0,1,.61,1.95c.15.56.29,1.14.33,1.28s.11.42.15.61.17.71.27,1.17l.27,1.13c.17.76.31,1.38.38,1.59a1.66,1.66,0,0,1,.07.37,1.63,1.63,0,0,0,.07.38c0,.12.13.46.19.76s.16.64.19.79.22.93.53,2.3c0,.17.16.68.27,1.13s.22,1,.26,1.13l.27,1.14c.1.45.22,1,.26,1.13l.37,1.62c0,.15.16.66.27,1.13s.23,1,.26,1.17.13.54.19.83c.17.77.27,1.18.34,1.48,0,.14.16.65.27,1.13.31,1.39.45,2,.64,2.79,0,.15.15.66.26,1.13s.23,1,.27,1.17.12.54.18.83l.2.85c0,.18.1.47.14.64.08.38.29,1.26.38,1.65s.32,1.39.5,2.22c.07.29.15.65.18.8.09.34.29,1.23.38,1.62l.19.83c.06.29.15.66.19.83s.11.49.15.72.12.51.16.63a.57.57,0,0,1,0,.28,1,1,0,0,1-.47.07,16.51,16.51,0,0,0-2.44.37,15.3,15.3,0,0,0-2.71,1,20.46,20.46,0,0,0-4.15,2.84c-.7.6-2.49,2.39-3.51,3.51l-.86.94c-.19.21-.57.63-.83,1l-.53.6s-.23.26-.46.53l-.45.52-.79.91-.79.91s-.23.25-.46.52l-.45.53-.72.8c-1,1.11-2.91,3-3.82,3.77s-1,.82-1.65,1.33a12.48,12.48,0,0,1-1.66,1c-.05,0-.15-.16-.24-.36Z"/><path class="a" d="M433.85,77.13c.36-.57.68-1.11.73-1.19a5.1,5.1,0,0,1,.28-.47,2.69,2.69,0,0,0,.2-.36,5.76,5.76,0,0,1,.33-.55c.18-.28.47-.78.65-1.11s.35-.64.38-.68.28-.47.68-1.21l.6-1.1c.53-1,3.4-6.78,3.4-6.89s.17-.39.38-.83.38-.82.38-.84a3.81,3.81,0,0,1,.19-.47l.25-.59c0-.08.12-.28.19-.44.38-.86,1.1-2.65,1.1-2.74s-.11-.1-.44.39c-.18.26-.39.54-.46.62l-.34.43a2.51,2.51,0,0,1-.27.34l-.62.72A23.55,23.55,0,0,1,437.31,64a18.25,18.25,0,0,1-2.06.9l-1.68.65a12.61,12.61,0,0,0-4.31,2.85,37.3,37.3,0,0,0-2.54,2.8l-.34.42a4.92,4.92,0,0,0-.72,1.05c0,.08,1.06.86,1.85,1.43.31.23.59.43.61.46s.22.18.45.34l.49.36,1.12.85c.12.08.78.58,1.47,1.11a10.91,10.91,0,0,0,1.41,1c.12,0,.31-.25.79-1Zm-15.46,16a1.49,1.49,0,0,0,.43-.27.11.11,0,0,1,.09,0,28.86,28.86,0,0,0,2.83-1.91l.75-.58a47.38,47.38,0,0,0,5.21-4.83,39.67,39.67,0,0,0,3.81-4.83,14.23,14.23,0,0,0-1.79-1.46l-2-1.48-2.16-1.63c-2-1.47-2.24-1.62-2.49-1.41a1.68,1.68,0,0,1-.33.16c-.36.13-.65.26-1.08.45l-.4.16a1.69,1.69,0,0,0-.3.11l-.52.23a1.69,1.69,0,0,1-.3.11,2.7,2.7,0,0,0-.4.16l-1,.41-.44.19a.53.53,0,0,1-.2.07,3.08,3.08,0,0,0-.51.2l-.59.25-7.65,3.14a2.38,2.38,0,0,1-.47.18.53.53,0,0,0-.2.07l-.32.15-1,.4-1.35.56-.28.11a2.31,2.31,0,0,0-.4.16,6.83,6.83,0,0,1-.88.37,3.41,3.41,0,0,0-.41.15l-.6.27c-.14.05-.25.13-.24.16a8.82,8.82,0,0,0,1,.77c.56.4,1.09.78,1.17.85a.6.6,0,0,0,.21.14.68.68,0,0,1,.19.13c.08.07.68.51,1.32,1,2.76,2,4.68,3.35,4.94,3.56l1.39,1,1.43,1c.45.38,2.79,2,2.89,2A2,2,0,0,0,418.39,93.13Zm18.31,19.6a13.83,13.83,0,0,0,2.54-1.22,6.1,6.1,0,0,1,.63-.36c.05,0,1.25-.86,1.72-1.23a51.53,51.53,0,0,0,6.35-6.24c1-1.13,1.44-1.65,2-2.34l.75-.88.31-.34c3.81-4.33,5.46-5.92,7.54-7.28a11.49,11.49,0,0,1,4-1.71,7.72,7.72,0,0,1,2.16-.17,7.3,7.3,0,0,1,2.75.35,6.41,6.41,0,0,1,1,.36,18.05,18.05,0,0,1,3.16,1.78l.77.61a49,49,0,0,1,3.63,3.33c1.31,1.28,1.47,1.36,1.09.53s-.48-1.08-.76-1.75c-.15-.38-.34-.82-.42-1s-.33-.78-.56-1.36-.51-1.24-.61-1.46a3.09,3.09,0,0,1-.19-.47.87.87,0,0,0-.06-.21c-.09-.17-.17-.37-.54-1.3l-.37-.94c0-.08-.14-.36-.24-.61l-.26-.67c-.05-.13-.31-.79-.56-1.48l-.53-1.39c0-.09-.16-.41-.27-.72l-.26-.72c0-.08-.15-.4-.27-.71-.37-1.06-.58-1.63-.64-1.78s-.34-1-.68-2c-.17-.5-.33-1-.37-1.06a1.76,1.76,0,0,1-.1-.3c0-.08-.21-.64-.43-1.24s-.49-1.4-.61-1.78-.26-.75-.3-.83-.08-.22-.1-.3-.21-.64-.42-1.25-.46-1.28-.53-1.51c-.14-.41-.71-2-1.09-3.09-.12-.31-.26-.72-.32-.91-.15-.44-.48-1.35-.56-1.54s-.12-.34-.19-.57a3.39,3.39,0,0,0-.2-.49.4.4,0,0,1-.06-.21.63.63,0,0,0-.07-.26c0-.08-.16-.38-.26-.68-.43-1.2-.59-1.65-.65-1.79s-.42-1.14-.55-1.55l-.21-.57c-.18-.45-.18-.46-1-2.75-.23-.63-.51-1.37-.7-1.85,0-.09-.1-.27-.16-.42l-.18-.49c-.06-.12-.17-.43-.27-.68-.22-.58-.31-.81-.55-1.34a3.08,3.08,0,0,1-.2-.51.63.63,0,0,0-.07-.21c0-.07-.12-.25-.18-.39a24.57,24.57,0,0,0-3.46-6.27,2.37,2.37,0,0,0-1.87-1c-1.06,0-1.9,1-3.17,3.53-.24.5-.49,1-.55,1.17l-.27.61c-.08.18-.29.69-.47,1.13l-.37.94c0,.09-.16.39-.27.68s-.23.6-.27.68l-.26.68c-.12.29-.25.64-.31.77a1.37,1.37,0,0,0-.1.28,3.77,3.77,0,0,1-.16.4l-.23.51c-.24.57-.51,1.18-.9,2-.11.25-.47,1.1-.79,1.89l-.68,1.66c-.05.12-.23.53-.38.9s-.35.84-.43,1-.19.45-.25.57l-.32.72-.39.86c-.09.21-.27.6-.4.87-.38.83-2.75,5.59-3.08,6.19l-.6,1.1c-.38.7-.65,1.2-.92,1.64a4.36,4.36,0,0,0-.21.4,3.12,3.12,0,0,1-.27.45,4.84,4.84,0,0,0-.26.45,7.11,7.11,0,0,1-.38.64c-.2.33-.37.62-.37.64s-.24.41-.53.87-.53.86-.53.88a3.24,3.24,0,0,1-.47.69.13.13,0,0,0-.06.1,44,44,0,0,1-2.79,4.14,21.18,21.18,0,0,1-1.34,1.7l-.6.74a52.68,52.68,0,0,1-5.95,5.83l-.64.54-.26.23.35.16a10.89,10.89,0,0,1,3.28,3,31.53,31.53,0,0,1,1.87,2.8l.27.45c.16.2,1.89,3.6,2.26,4.42.1.23.33.72.51,1.11s.32.71.32.73.13.32.29.66.33.75.39.89a1.48,1.48,0,0,0,.17.34.32.32,0,0,1,.06.17,2.26,2.26,0,0,0,.19.51l.37.83a2.46,2.46,0,0,1,.19.5.53.53,0,0,0,.07.2,8.37,8.37,0,0,1,.35.81c.19.45.21.51.65,1.61.3.73.44,1,.53,1a2.56,2.56,0,0,0,.57-.16Zm-2,3.13c-.5-.18-.66-.38-1-1.28,0-.08-.1-.23-.14-.34s-.17-.42-.28-.71l-.31-.77a1.75,1.75,0,0,1-.11-.28,2.62,2.62,0,0,0-.16-.41c-.08-.19-.18-.42-.22-.5s-.12-.29-.19-.46-.15-.37-.18-.45l-.39-.94-.16-.38c-.16-.41-.21-.51-.39-.93-.11-.24-.19-.45-.19-.46s-.12-.29-.27-.61-.26-.58-.26-.6-.14-.33-.31-.7l-.54-1.16c-.53-1.17-2-4-2.26-4.38a1.46,1.46,0,0,1-.14-.25,3.32,3.32,0,0,0-.26-.47,3.12,3.12,0,0,1-.27-.45.28.28,0,0,0-.08-.13l-.36-.52a9,9,0,0,0-3.23-3.4,2.05,2.05,0,0,0-1.08-.16,6,6,0,0,0-3.32,1.11,1.63,1.63,0,0,1-.8.16c-.61,0-.45.09-2.71-1.54l-1.63-1.17c-.11-.09-.84-.61-1.62-1.17l-2.83-2-2.83-2-1.62-1.17-1.9-1.36-2.48-1.79c-1-.7-1.16-1-1.15-1.62a1.14,1.14,0,0,1,.53-1.07c.11-.08,1.14-.52,2.28-1s2.22-.91,2.4-1l.64-.27c.18-.06.5-.2.72-.3a2.65,2.65,0,0,1,.47-.18.63.63,0,0,0,.21-.07l.43-.19.47-.2.34-.13,1-.4.32-.15a.57.57,0,0,1,.21-.07,8.25,8.25,0,0,0,1.07-.45.63.63,0,0,1,.21-.07,3.09,3.09,0,0,0,.47-.19l4-1.63,3.77-1.54.65-.27L420,73a3.91,3.91,0,0,1,.47-.18.87.87,0,0,0,.21-.06l.32-.15.94-.39a3,3,0,0,0,1.06-.6.92.92,0,0,1,.17-.27c.07-.08.32-.4.54-.71a32,32,0,0,1,4.46-4.94l.79-.67a11.4,11.4,0,0,1,1-.69,12.82,12.82,0,0,1,2.76-1.4l.41-.15,1-.38a17.89,17.89,0,0,0,1.89-.82,21.26,21.26,0,0,0,3.58-3.37A113.93,113.93,0,0,0,447.85,46c.24-.42,1.17-1.8,1.5-2.23a10.24,10.24,0,0,1,2.81-2.5,5.35,5.35,0,0,1,1.8-.52,8.14,8.14,0,0,1,1.82.31,6.69,6.69,0,0,1,2.77,2.12,16.84,16.84,0,0,1,1.12,1.61,3.25,3.25,0,0,0,.25.44c.22.35,1.13,2.15,1.43,2.85.07.14.23.5.36.79.26.58.43,1,.53,1.21l.18.45.19.45c0,.09.11.27.17.42s.31.77.55,1.39.47,1.24.52,1.36.14.35.19.49.12.34.16.42l.15.41c0,.15.14.37.19.49a5.91,5.91,0,0,1,.21.57,5.91,5.91,0,0,0,.21.57c.17.43.21.53.41,1.09l.26.72c.06.14.36,1,.55,1.51,0,.12.12.33.17.45s.19.48.29.79l.5,1.44.43,1.21.17.49c0,.08.12.32.19.52s.16.45.19.53.41,1.09.56,1.55c.06.19.2.59.32.91.49,1.38,1,2.74,1.24,3.58.17.5.34,1,.37,1.06s.08.22.11.3.21.64.42,1.25.54,1.53.72,2.07.5,1.47.72,2.08l.53,1.51c.19.56.7,2,.85,2.37l.39,1.06c.26.72.44,1.18.57,1.51l.49,1.28c.36,1,.86,2.24,1.09,2.8,0,.08.16.39.27.68s.27.67.35.84.14.35.14.37a1.69,1.69,0,0,0,.11.3l.23.52a1.69,1.69,0,0,1,.11.3,2.7,2.7,0,0,0,.16.4l.27.63.19.45c0,.1.11.25.14.34l.18.45c.07.17.15.37.19.45s.14.32.23.53.21.48.26.61l.3.66c.1.24.19.45.19.47s.12.29.27.61.26.58.26.6.1.24.22.5.29.65.39.85c.37.84,1,2.16,1.41,3.06a1.67,1.67,0,0,1-.05,1.37,1.25,1.25,0,0,1-1.18.62,1.43,1.43,0,0,1-1-.36A46.35,46.35,0,0,1,474,99.26c-1.5-1.46-2.39-2.28-2.83-2.64a5.13,5.13,0,0,1-.41-.35,18.32,18.32,0,0,0-3-1.88.26.26,0,0,1-.16-.07,9.25,9.25,0,0,0-1.61-.53,9.43,9.43,0,0,0-2.75,0c-2.54.53-4.7,2.08-8.17,5.89l-.83.9-1.88,2.16c-1.44,1.68-2.25,2.62-2.94,3.4-1,1.12-3.71,3.86-4.41,4.47l-.73.62c-.38.33-1.81,1.45-2.05,1.6a1.14,1.14,0,0,0-.25.18,21.8,21.8,0,0,1-2.66,1.56,13.85,13.85,0,0,1-3.24,1.19c-.91.22-1,.22-1.38.07Z"/></svg>